<svg width="404" height="341" viewBox="0 0 404 341" fill="none" xmlns="http://www.w3.org/2000/svg">
<g filter="url(#filter0_bd_349_4)">
<rect x="154.57" y="6" width="270" height="144" rx="4" transform="rotate(24 154.57 6)" fill="url(#paint0_linear_349_4)" shape-rendering="crispEdges"/>
<rect x="154.57" y="6" width="270" height="144" rx="4" transform="rotate(24 154.57 6)" fill="url(#paint1_linear_349_4)" fill-opacity="0.2" shape-rendering="crispEdges"/>
</g>
<path d="M122.161 107.83L118.723 115.553L117.395 114.962L120.833 107.239L122.161 107.83ZM124.752 108.984L124.275 110.054L117.816 107.179L118.293 106.108L124.752 108.984ZM125.182 118.6C124.645 118.36 124.197 118.053 123.84 117.677C123.49 117.299 123.232 116.873 123.066 116.4C122.905 115.929 122.843 115.429 122.88 114.898C122.916 114.367 123.056 113.83 123.297 113.288L123.431 112.988C123.71 112.36 124.052 111.842 124.456 111.435C124.862 111.022 125.3 110.716 125.771 110.515C126.243 110.315 126.72 110.216 127.203 110.22C127.686 110.224 128.143 110.323 128.576 110.516C129.128 110.761 129.562 111.068 129.877 111.437C130.196 111.807 130.408 112.221 130.513 112.678C130.619 113.13 130.632 113.614 130.55 114.131C130.47 114.643 130.31 115.17 130.068 115.712L129.805 116.305L124.038 113.737L124.518 112.659L128.964 114.639L129.008 114.539C129.142 114.188 129.219 113.823 129.239 113.445C129.264 113.068 129.193 112.717 129.024 112.391C128.856 112.065 128.545 111.802 128.093 111.6C127.794 111.467 127.489 111.408 127.18 111.425C126.872 111.436 126.573 111.525 126.282 111.692C125.991 111.859 125.717 112.099 125.458 112.411C125.199 112.723 124.966 113.113 124.758 113.579L124.625 113.879C124.462 114.245 124.358 114.612 124.314 114.98C124.277 115.346 124.301 115.693 124.388 116.023C124.48 116.354 124.636 116.652 124.855 116.915C125.079 117.18 125.372 117.393 125.734 117.554C126.2 117.761 126.637 117.842 127.045 117.796C127.454 117.749 127.85 117.621 128.235 117.41L128.751 118.401C128.472 118.579 128.154 118.725 127.795 118.839C127.437 118.953 127.038 118.998 126.598 118.973C126.163 118.951 125.691 118.826 125.182 118.6ZM138.391 115.056L137.904 116.148L134.172 114.486L134.658 113.394L138.391 115.056ZM139.554 115.574L136.116 123.296L134.795 122.709L138.234 114.986L139.554 115.574ZM134.337 113.251L135.664 113.842L133.806 117.479C133.516 118.04 133.235 118.525 132.961 118.933C132.695 119.339 132.428 119.671 132.16 119.927C131.896 120.186 131.625 120.373 131.345 120.488C131.073 120.601 130.785 120.646 130.481 120.625C130.179 120.599 129.856 120.51 129.514 120.357L129.1 120.173L129.618 119.009L129.913 119.115C130.124 119.192 130.319 119.222 130.497 119.204C130.681 119.189 130.858 119.125 131.027 119.013C131.199 118.896 131.372 118.725 131.547 118.5C131.725 118.277 131.909 118 132.097 117.667C132.29 117.337 132.498 116.945 132.723 116.492L134.337 113.251ZM141.384 125.813C140.846 125.573 140.398 125.266 140.041 124.89C139.691 124.512 139.433 124.086 139.267 123.613C139.106 123.143 139.044 122.642 139.081 122.111C139.118 121.58 139.257 121.043 139.498 120.501L139.632 120.201C139.911 119.573 140.253 119.055 140.657 118.648C141.063 118.236 141.501 117.929 141.973 117.729C142.444 117.528 142.921 117.43 143.404 117.434C143.887 117.438 144.345 117.536 144.778 117.729C145.329 117.975 145.763 118.282 146.078 118.65C146.398 119.02 146.61 119.434 146.714 119.891C146.821 120.343 146.833 120.828 146.751 121.344C146.671 121.856 146.511 122.383 146.269 122.926L146.006 123.518L140.239 120.95L140.719 119.873L145.165 121.852L145.21 121.752C145.343 121.401 145.42 121.037 145.44 120.658C145.465 120.281 145.394 119.93 145.225 119.604C145.057 119.278 144.747 119.015 144.295 118.814C143.995 118.68 143.69 118.622 143.381 118.638C143.074 118.649 142.774 118.738 142.484 118.905C142.193 119.072 141.918 119.312 141.659 119.624C141.4 119.937 141.167 120.326 140.959 120.792L140.826 121.092C140.663 121.458 140.559 121.826 140.515 122.194C140.478 122.559 140.503 122.906 140.59 123.236C140.681 123.568 140.837 123.865 141.056 124.128C141.28 124.393 141.573 124.606 141.935 124.767C142.401 124.975 142.838 125.055 143.247 125.009C143.655 124.963 144.051 124.834 144.436 124.623L144.952 125.615C144.674 125.793 144.355 125.939 143.996 126.053C143.638 126.167 143.239 126.211 142.799 126.187C142.365 126.164 141.893 126.04 141.384 125.813ZM156.531 127.922L156.464 128.072C156.222 128.614 155.941 129.087 155.618 129.491C155.298 129.89 154.945 130.203 154.559 130.43C154.177 130.659 153.771 130.79 153.342 130.82C152.914 130.847 152.471 130.758 152.015 130.555C151.639 130.387 151.33 130.19 151.089 129.963C150.85 129.731 150.674 129.473 150.561 129.189C150.453 128.907 150.4 128.604 150.402 128.28C150.411 127.953 150.47 127.609 150.579 127.248L152.105 123.822C152.311 123.474 152.535 123.181 152.779 122.942C153.027 122.704 153.294 122.527 153.58 122.409C153.871 122.294 154.181 122.243 154.511 122.259C154.84 122.275 155.193 122.366 155.569 122.533C155.94 122.699 156.243 122.914 156.479 123.178C156.722 123.44 156.901 123.742 157.016 124.084C157.137 124.429 157.194 124.805 157.189 125.213C157.191 125.619 157.136 126.05 157.023 126.508C156.911 126.965 156.747 127.436 156.531 127.922ZM155.144 127.484L155.21 127.334C155.359 127.001 155.476 126.674 155.562 126.353C155.654 126.029 155.709 125.72 155.726 125.426C155.75 125.128 155.731 124.852 155.668 124.596C155.605 124.34 155.493 124.113 155.33 123.915C155.172 123.719 154.96 123.562 154.693 123.443C154.408 123.316 154.154 123.246 153.932 123.233C153.715 123.222 153.527 123.252 153.369 123.324C153.214 123.392 153.084 123.479 152.979 123.587L150.987 128.062C150.997 128.192 151.036 128.329 151.103 128.473C151.172 128.612 151.286 128.754 151.444 128.898C151.604 129.038 151.824 129.17 152.105 129.295C152.438 129.443 152.751 129.503 153.043 129.473C153.343 129.441 153.62 129.337 153.876 129.16C154.136 128.985 154.37 128.753 154.579 128.464C154.792 128.177 154.98 127.85 155.144 127.484ZM147.293 123.988L147.36 123.838C147.576 123.353 147.816 122.916 148.081 122.526C148.345 122.137 148.629 121.807 148.932 121.537C149.236 121.262 149.555 121.053 149.886 120.91C150.223 120.769 150.567 120.7 150.919 120.703C151.278 120.703 151.643 120.786 152.015 120.951C152.381 121.114 152.675 121.311 152.898 121.541C153.125 121.773 153.288 122.034 153.388 122.323C153.487 122.613 153.529 122.928 153.514 123.269C153.499 123.61 153.434 123.974 153.318 124.362L151.853 127.652C151.649 127.995 151.426 128.286 151.182 128.525C150.939 128.764 150.675 128.946 150.392 129.071C150.11 129.191 149.805 129.243 149.476 129.228C149.151 129.214 148.803 129.125 148.432 128.96C147.975 128.756 147.613 128.487 147.346 128.151C147.082 127.811 146.904 127.421 146.815 126.982C146.73 126.546 146.726 126.074 146.804 125.567C146.888 125.057 147.051 124.531 147.293 123.988ZM148.687 124.429L148.62 124.579C148.457 124.946 148.336 125.302 148.255 125.648C148.18 125.997 148.157 126.323 148.187 126.627C148.222 126.933 148.323 127.206 148.49 127.446C148.659 127.681 148.91 127.873 149.243 128.021C149.529 128.148 149.78 128.217 149.997 128.228C150.215 128.24 150.403 128.213 150.564 128.147C150.724 128.082 150.86 128 150.972 127.901L152.908 123.555C152.917 123.405 152.893 123.249 152.834 123.086C152.782 122.921 152.68 122.761 152.526 122.607C152.372 122.453 152.15 122.311 151.86 122.182C151.527 122.034 151.208 121.988 150.903 122.046C150.597 122.104 150.311 122.242 150.043 122.459C149.78 122.678 149.533 122.959 149.301 123.3C149.076 123.639 148.871 124.016 148.687 124.429ZM148.247 132.255L154.45 118.324L155.777 118.915L149.575 132.846L148.247 132.255ZM157.93 128.485L158.003 128.321C158.251 127.764 158.562 127.284 158.936 126.88C159.311 126.472 159.73 126.159 160.191 125.943C160.655 125.721 161.146 125.61 161.666 125.607C162.188 125.6 162.718 125.716 163.255 125.956C163.798 126.197 164.241 126.514 164.585 126.907C164.936 127.297 165.184 127.738 165.33 128.23C165.482 128.72 165.533 129.241 165.48 129.794C165.43 130.342 165.281 130.894 165.033 131.451L164.96 131.615C164.713 132.172 164.402 132.652 164.028 133.056C163.655 133.459 163.234 133.771 162.766 133.99C162.304 134.207 161.813 134.318 161.291 134.325C160.776 134.33 160.247 134.211 159.704 133.97C159.162 133.728 158.718 133.414 158.372 133.026C158.028 132.633 157.779 132.192 157.627 131.702C157.481 131.21 157.433 130.69 157.483 130.142C157.534 129.594 157.682 129.042 157.93 128.485ZM159.324 128.909L159.251 129.073C159.079 129.458 158.962 129.842 158.9 130.225C158.84 130.603 158.842 130.963 158.907 131.306C158.976 131.65 159.114 131.96 159.322 132.235C159.533 132.505 159.821 132.722 160.187 132.885C160.549 133.046 160.898 133.113 161.235 133.086C161.579 133.057 161.899 132.952 162.197 132.771C162.494 132.589 162.763 132.35 163.004 132.052C163.252 131.752 163.461 131.409 163.633 131.024L163.706 130.86C163.875 130.479 163.988 130.099 164.043 129.719C164.105 129.336 164.102 128.972 164.033 128.628C163.97 128.281 163.835 127.97 163.627 127.695C163.424 127.422 163.139 127.204 162.772 127.041C162.411 126.88 162.058 126.814 161.714 126.843C161.375 126.875 161.054 126.982 160.75 127.166C160.452 127.347 160.182 127.589 159.939 127.891C159.698 128.189 159.493 128.528 159.324 128.909ZM172.122 134.085L171.645 135.156L167.563 133.338L168.039 132.267L172.122 134.085ZM169.808 129.044L166.37 136.766L165.049 136.179L168.488 128.456L169.808 129.044ZM174.683 131.214L171.244 138.937L169.917 138.346L173.355 130.623L174.683 131.214ZM115.508 131.55C115.227 132.183 114.84 132.655 114.348 132.966C113.863 133.275 113.319 133.432 112.718 133.438C112.121 133.446 111.512 133.311 110.888 133.034C110.265 132.756 109.754 132.392 109.356 131.941C108.959 131.49 108.712 130.981 108.617 130.414C108.523 129.843 108.618 129.24 108.899 128.608C109.084 128.194 109.331 127.85 109.64 127.578C109.957 127.302 110.317 127.101 110.722 126.973C111.131 126.848 111.566 126.805 112.027 126.845C112.495 126.882 112.972 127.009 113.457 127.225C114.095 127.509 114.609 127.886 114.998 128.355C115.389 128.82 115.633 129.331 115.728 129.886C115.827 130.443 115.754 130.998 115.508 131.55ZM114.193 130.931C114.365 130.545 114.433 130.168 114.398 129.799C114.365 129.425 114.236 129.088 114.01 128.788C113.784 128.488 113.474 128.25 113.079 128.074C112.675 127.894 112.288 127.822 111.919 127.857C111.555 127.894 111.225 128.027 110.929 128.254C110.636 128.477 110.404 128.782 110.232 129.167C110.054 129.567 109.98 129.944 110.01 130.3C110.047 130.652 110.179 130.97 110.406 131.254C110.64 131.535 110.962 131.767 111.371 131.949C111.78 132.131 112.165 132.214 112.526 132.198C112.889 132.177 113.211 132.061 113.493 131.85C113.782 131.637 114.016 131.33 114.193 130.931ZM117.436 126.567C117.211 127.072 116.876 127.467 116.429 127.753C115.983 128.038 115.477 128.195 114.912 128.223C114.346 128.251 113.771 128.134 113.186 127.874C112.591 127.609 112.112 127.256 111.75 126.815C111.392 126.377 111.172 125.897 111.091 125.376C111.009 124.855 111.081 124.342 111.305 123.838C111.574 123.234 111.934 122.778 112.384 122.471C112.839 122.166 113.347 122.005 113.908 121.987C114.469 121.968 115.045 122.091 115.635 122.353C116.23 122.618 116.708 122.965 117.07 123.394C117.432 123.823 117.649 124.308 117.723 124.848C117.801 125.39 117.705 125.963 117.436 126.567ZM116.106 126.001C116.261 125.654 116.324 125.314 116.295 124.982C116.266 124.65 116.154 124.349 115.961 124.08C115.769 123.807 115.499 123.593 115.152 123.438C114.805 123.284 114.467 123.222 114.14 123.253C113.819 123.281 113.526 123.396 113.26 123.596C112.999 123.799 112.786 124.084 112.623 124.45C112.464 124.807 112.397 125.151 112.421 125.481C112.45 125.813 112.562 126.111 112.758 126.375C112.954 126.639 113.226 126.848 113.573 127.003C113.921 127.157 114.256 127.218 114.578 127.185C114.906 127.154 115.202 127.038 115.469 126.837C115.735 126.637 115.947 126.358 116.106 126.001ZM127.356 136.825C127.074 137.458 126.687 137.93 126.195 138.241C125.71 138.549 125.167 138.707 124.566 138.713C123.969 138.721 123.359 138.586 122.736 138.308C122.113 138.031 121.602 137.667 121.204 137.216C120.806 136.765 120.559 136.256 120.464 135.689C120.371 135.118 120.465 134.515 120.747 133.882C120.931 133.469 121.178 133.125 121.488 132.853C121.804 132.577 122.165 132.376 122.569 132.248C122.979 132.122 123.414 132.08 123.875 132.12C124.343 132.157 124.82 132.284 125.305 132.5C125.943 132.784 126.456 133.16 126.845 133.63C127.237 134.095 127.48 134.606 127.575 135.161C127.675 135.718 127.602 136.273 127.356 136.825ZM126.041 136.205C126.213 135.82 126.281 135.443 126.246 135.074C126.213 134.7 126.083 134.363 125.858 134.063C125.632 133.763 125.322 133.525 124.927 133.349C124.522 133.169 124.136 133.096 123.766 133.132C123.402 133.169 123.072 133.301 122.777 133.529C122.484 133.752 122.252 134.056 122.08 134.442C121.902 134.841 121.828 135.219 121.858 135.574C121.895 135.927 122.027 136.245 122.254 136.529C122.488 136.81 122.81 137.041 123.219 137.224C123.628 137.406 124.013 137.489 124.374 137.473C124.736 137.452 125.059 137.336 125.341 137.125C125.63 136.912 125.863 136.605 126.041 136.205ZM129.283 131.842C129.059 132.347 128.723 132.742 128.277 133.028C127.83 133.313 127.324 133.47 126.759 133.498C126.194 133.525 125.618 133.409 125.033 133.148C124.438 132.884 123.96 132.531 123.597 132.09C123.24 131.651 123.02 131.172 122.938 130.651C122.857 130.13 122.928 129.617 123.153 129.113C123.422 128.508 123.781 128.053 124.232 127.746C124.687 127.441 125.195 127.28 125.756 127.261C126.317 127.243 126.892 127.366 127.482 127.628C128.077 127.893 128.556 128.24 128.918 128.669C129.279 129.098 129.497 129.583 129.57 130.123C129.648 130.665 129.553 131.238 129.283 131.842ZM127.954 131.276C128.108 130.929 128.171 130.589 128.142 130.257C128.113 129.925 128.002 129.624 127.808 129.355C127.616 129.082 127.347 128.868 126.999 128.713C126.652 128.558 126.315 128.497 125.987 128.528C125.667 128.556 125.374 128.67 125.107 128.871C124.846 129.074 124.634 129.359 124.471 129.725C124.312 130.082 124.244 130.425 124.269 130.755C124.297 131.088 124.41 131.386 124.606 131.65C124.802 131.914 125.074 132.123 125.421 132.278C125.768 132.432 126.103 132.493 126.426 132.46C126.753 132.429 127.05 132.313 127.316 132.112C127.582 131.912 127.795 131.633 127.954 131.276ZM136.979 137.261L136.274 138.846C135.894 139.697 135.498 140.382 135.086 140.899C134.673 141.417 134.244 141.79 133.8 142.02C133.356 142.25 132.895 142.356 132.419 142.337C131.949 142.316 131.462 142.194 130.958 141.969C130.558 141.791 130.212 141.577 129.918 141.327C129.625 141.076 129.391 140.781 129.218 140.442C129.051 140.1 128.952 139.708 128.92 139.266C128.889 138.824 128.936 138.327 129.063 137.773C129.19 137.22 129.405 136.603 129.708 135.922L130.413 134.338C130.792 133.486 131.186 132.806 131.595 132.298C132.008 131.793 132.435 131.43 132.875 131.209C133.317 130.984 133.772 130.885 134.239 130.91C134.712 130.938 135.198 131.063 135.697 131.286C136.102 131.466 136.451 131.681 136.744 131.931C137.044 132.179 137.28 132.469 137.451 132.802C137.624 133.13 137.725 133.511 137.754 133.946C137.79 134.378 137.745 134.868 137.62 135.417C137.496 135.966 137.282 136.581 136.979 137.261ZM134.851 138.469L135.75 136.449C135.958 135.983 136.111 135.561 136.211 135.183C136.318 134.803 136.375 134.464 136.382 134.165C136.39 133.866 136.348 133.602 136.256 133.373C136.169 133.146 136.036 132.95 135.859 132.786C135.688 132.619 135.474 132.478 135.217 132.363C134.903 132.224 134.599 132.159 134.303 132.17C134.009 132.176 133.723 132.268 133.444 132.446C133.17 132.626 132.899 132.902 132.632 133.273C132.364 133.644 132.1 134.122 131.839 134.708L130.94 136.727C130.732 137.194 130.575 137.617 130.469 137.997C130.367 138.379 130.312 138.726 130.305 139.036C130.3 139.342 130.339 139.613 130.422 139.849C130.505 140.086 130.631 140.29 130.799 140.462C130.975 140.631 131.189 140.772 131.441 140.884C131.764 141.028 132.075 141.093 132.373 141.077C132.67 141.061 132.958 140.959 133.237 140.769C133.522 140.577 133.797 140.291 134.062 139.913C134.33 139.531 134.592 139.049 134.851 138.469ZM145.201 140.922L144.496 142.506C144.116 143.358 143.72 144.043 143.308 144.56C142.895 145.077 142.466 145.451 142.022 145.681C141.577 145.911 141.117 146.016 140.641 145.998C140.171 145.977 139.684 145.854 139.18 145.63C138.78 145.452 138.433 145.238 138.14 144.987C137.847 144.737 137.613 144.442 137.439 144.102C137.273 143.76 137.173 143.368 137.142 142.927C137.111 142.485 137.158 141.987 137.285 141.434C137.412 140.88 137.627 140.263 137.929 139.583L138.635 137.998C139.014 137.147 139.408 136.467 139.817 135.959C140.23 135.453 140.657 135.09 141.097 134.87C141.539 134.645 141.994 134.545 142.461 134.571C142.934 134.599 143.42 134.724 143.919 134.946C144.324 135.126 144.672 135.342 144.966 135.592C145.266 135.84 145.502 136.13 145.673 136.463C145.846 136.791 145.947 137.172 145.976 137.607C146.011 138.039 145.967 138.529 145.842 139.078C145.718 139.627 145.504 140.241 145.201 140.922ZM143.073 142.129L143.972 140.11C144.18 139.643 144.333 139.221 144.433 138.844C144.539 138.464 144.597 138.124 144.604 137.825C144.612 137.527 144.57 137.263 144.478 137.034C144.391 136.807 144.258 136.611 144.081 136.446C143.91 136.279 143.696 136.138 143.439 136.024C143.125 135.884 142.82 135.82 142.525 135.831C142.231 135.837 141.945 135.929 141.666 136.107C141.392 136.287 141.121 136.563 140.854 136.934C140.586 137.305 140.321 137.783 140.061 138.368L139.162 140.388C138.954 140.854 138.797 141.278 138.69 141.658C138.589 142.04 138.534 142.386 138.527 142.697C138.522 143.002 138.561 143.273 138.644 143.51C138.727 143.746 138.853 143.95 139.021 144.122C139.197 144.292 139.41 144.433 139.663 144.545C139.986 144.689 140.297 144.753 140.595 144.737C140.892 144.722 141.18 144.619 141.459 144.429C141.744 144.237 142.019 143.952 142.284 143.574C142.551 143.191 142.814 142.71 143.073 142.129ZM155.647 149.421C155.365 150.054 154.979 150.526 154.487 150.837C154.001 151.146 153.458 151.303 152.857 151.309C152.26 151.317 151.65 151.182 151.027 150.905C150.404 150.627 149.893 150.263 149.495 149.812C149.097 149.361 148.851 148.852 148.755 148.285C148.662 147.714 148.757 147.111 149.038 146.479C149.223 146.065 149.469 145.721 149.779 145.449C150.095 145.173 150.456 144.972 150.861 144.844C151.27 144.719 151.705 144.676 152.166 144.716C152.634 144.753 153.111 144.88 153.596 145.096C154.234 145.38 154.747 145.757 155.137 146.226C155.528 146.691 155.772 147.202 155.866 147.757C155.966 148.314 155.893 148.869 155.647 149.421ZM154.332 148.802C154.504 148.416 154.572 148.039 154.537 147.67C154.504 147.296 154.375 146.959 154.149 146.659C153.923 146.359 153.613 146.121 153.218 145.945C152.814 145.765 152.427 145.693 152.058 145.728C151.693 145.765 151.364 145.898 151.068 146.125C150.775 146.348 150.543 146.653 150.371 147.038C150.193 147.438 150.119 147.815 150.149 148.171C150.186 148.523 150.318 148.841 150.545 149.125C150.779 149.406 151.101 149.638 151.51 149.82C151.919 150.002 152.304 150.085 152.665 150.069C153.028 150.048 153.35 149.932 153.632 149.721C153.921 149.508 154.154 149.201 154.332 148.802ZM157.575 144.438C157.35 144.943 157.015 145.338 156.568 145.624C156.122 145.909 155.616 146.066 155.05 146.094C154.485 146.122 153.91 146.005 153.325 145.744C152.73 145.48 152.251 145.127 151.889 144.686C151.531 144.248 151.311 143.768 151.23 143.247C151.148 142.726 151.22 142.213 151.444 141.709C151.713 141.105 152.073 140.649 152.523 140.342C152.978 140.037 153.486 139.876 154.047 139.858C154.608 139.839 155.184 139.962 155.774 140.224C156.369 140.489 156.847 140.836 157.209 141.265C157.571 141.694 157.788 142.179 157.862 142.719C157.939 143.261 157.844 143.834 157.575 144.438ZM156.245 143.872C156.4 143.525 156.462 143.185 156.434 142.853C156.405 142.521 156.293 142.22 156.099 141.951C155.908 141.678 155.638 141.464 155.291 141.309C154.943 141.155 154.606 141.093 154.279 141.124C153.958 141.152 153.665 141.267 153.399 141.467C153.137 141.67 152.925 141.955 152.762 142.321C152.603 142.678 152.536 143.022 152.56 143.352C152.589 143.684 152.701 143.982 152.897 144.246C153.093 144.51 153.365 144.719 153.712 144.874C154.06 145.028 154.395 145.089 154.717 145.056C155.045 145.025 155.341 144.909 155.607 144.708C155.874 144.508 156.086 144.229 156.245 143.872ZM165.27 149.857L164.565 151.442C164.186 152.293 163.79 152.978 163.377 153.495C162.964 154.013 162.536 154.387 162.091 154.616C161.647 154.846 161.186 154.952 160.71 154.933C160.24 154.913 159.753 154.79 159.249 154.565C158.849 154.387 158.503 154.173 158.21 153.923C157.916 153.672 157.683 153.378 157.509 153.038C157.342 152.696 157.243 152.304 157.211 151.862C157.18 151.421 157.228 150.923 157.354 150.369C157.481 149.816 157.696 149.199 157.999 148.518L158.704 146.934C159.084 146.082 159.477 145.402 159.886 144.894C160.299 144.389 160.726 144.026 161.166 143.805C161.609 143.58 162.063 143.481 162.531 143.506C163.003 143.534 163.489 143.659 163.989 143.882C164.393 144.062 164.742 144.277 165.035 144.527C165.335 144.775 165.571 145.065 165.742 145.398C165.915 145.726 166.016 146.107 166.045 146.542C166.081 146.974 166.036 147.465 165.912 148.013C165.787 148.562 165.573 149.177 165.27 149.857ZM163.142 151.065L164.041 149.045C164.249 148.579 164.403 148.157 164.502 147.779C164.609 147.399 164.666 147.06 164.674 146.761C164.681 146.462 164.639 146.198 164.547 145.969C164.46 145.742 164.328 145.547 164.15 145.382C163.979 145.215 163.766 145.074 163.509 144.96C163.195 144.82 162.89 144.755 162.594 144.766C162.301 144.772 162.015 144.864 161.736 145.042C161.462 145.223 161.191 145.498 160.923 145.869C160.655 146.24 160.391 146.718 160.13 147.304L159.231 149.323C159.024 149.79 158.866 150.213 158.76 150.593C158.658 150.975 158.604 151.322 158.597 151.632C158.592 151.938 158.631 152.209 158.713 152.445C158.796 152.682 158.922 152.886 159.091 153.058C159.266 153.227 159.48 153.368 159.732 153.48C160.056 153.624 160.366 153.689 160.664 153.673C160.962 153.657 161.25 153.555 161.528 153.365C161.813 153.173 162.088 152.888 162.354 152.51C162.621 152.127 162.884 151.645 163.142 151.065ZM173.492 153.518L172.787 155.102C172.408 155.954 172.012 156.639 171.599 157.156C171.186 157.674 170.758 158.047 170.313 158.277C169.869 158.507 169.408 158.612 168.932 158.594C168.462 158.573 167.975 158.45 167.471 158.226C167.071 158.048 166.725 157.834 166.431 157.583C166.138 157.333 165.905 157.038 165.731 156.699C165.564 156.356 165.465 155.964 165.433 155.523C165.402 155.081 165.45 154.584 165.576 154.03C165.703 153.476 165.918 152.859 166.221 152.179L166.926 150.595C167.305 149.743 167.699 149.063 168.108 148.555C168.521 148.049 168.948 147.686 169.388 147.466C169.83 147.241 170.285 147.141 170.753 147.167C171.225 147.195 171.711 147.32 172.21 147.542C172.615 147.723 172.964 147.938 173.257 148.188C173.557 148.436 173.793 148.726 173.964 149.059C174.137 149.387 174.238 149.768 174.267 150.203C174.303 150.635 174.258 151.125 174.134 151.674C174.009 152.223 173.795 152.838 173.492 153.518ZM171.364 154.725L172.263 152.706C172.471 152.239 172.625 151.817 172.724 151.44C172.831 151.06 172.888 150.72 172.896 150.422C172.903 150.123 172.861 149.859 172.769 149.63C172.682 149.403 172.55 149.207 172.372 149.043C172.201 148.875 171.988 148.735 171.731 148.62C171.417 148.48 171.112 148.416 170.816 148.427C170.523 148.433 170.237 148.525 169.958 148.703C169.684 148.883 169.413 149.159 169.145 149.53C168.877 149.901 168.613 150.379 168.352 150.964L167.453 152.984C167.245 153.45 167.088 153.874 166.982 154.254C166.88 154.636 166.826 154.982 166.819 155.293C166.814 155.598 166.852 155.87 166.935 156.106C167.018 156.342 167.144 156.547 167.313 156.719C167.488 156.888 167.702 157.029 167.954 157.141C168.278 157.285 168.588 157.349 168.886 157.334C169.184 157.318 169.472 157.215 169.75 157.026C170.035 156.833 170.31 156.548 170.576 156.17C170.843 155.788 171.106 155.306 171.364 154.725ZM181.714 157.179L181.009 158.763C180.63 159.615 180.234 160.299 179.821 160.817C179.408 161.334 178.979 161.708 178.535 161.938C178.091 162.167 177.63 162.273 177.154 162.255C176.684 162.234 176.197 162.111 175.693 161.886C175.293 161.709 174.947 161.494 174.653 161.244C174.36 160.994 174.127 160.699 173.953 160.359C173.786 160.017 173.687 159.625 173.655 159.183C173.624 158.742 173.671 158.244 173.798 157.691C173.925 157.137 174.14 156.52 174.443 155.84L175.148 154.255C175.527 153.403 175.921 152.724 176.33 152.216C176.743 151.71 177.17 151.347 177.61 151.127C178.052 150.902 178.507 150.802 178.975 150.828C179.447 150.856 179.933 150.981 180.432 151.203C180.837 151.383 181.186 151.598 181.479 151.849C181.779 152.096 182.015 152.387 182.186 152.719C182.359 153.047 182.46 153.429 182.489 153.863C182.525 154.295 182.48 154.786 182.356 155.335C182.231 155.884 182.017 156.498 181.714 157.179ZM179.586 158.386L180.485 156.366C180.693 155.9 180.847 155.478 180.946 155.101C181.053 154.72 181.11 154.381 181.117 154.082C181.125 153.783 181.083 153.519 180.991 153.29C180.904 153.064 180.772 152.868 180.594 152.703C180.423 152.536 180.209 152.395 179.953 152.281C179.639 152.141 179.334 152.076 179.038 152.087C178.745 152.094 178.458 152.186 178.18 152.364C177.906 152.544 177.635 152.819 177.367 153.191C177.099 153.562 176.835 154.04 176.574 154.625L175.675 156.645C175.467 157.111 175.31 157.534 175.204 157.914C175.102 158.297 175.047 158.643 175.04 158.953C175.035 159.259 175.074 159.53 175.157 159.767C175.24 160.003 175.366 160.207 175.534 160.379C175.71 160.549 175.924 160.689 176.176 160.802C176.499 160.946 176.81 161.01 177.108 160.994C177.406 160.979 177.694 160.876 177.972 160.686C178.257 160.494 178.532 160.209 178.797 159.831C179.065 159.448 179.328 158.967 179.586 158.386ZM192.16 165.678C191.879 166.311 191.492 166.783 191 167.094C190.515 167.402 189.971 167.56 189.37 167.566C188.774 167.574 188.164 167.439 187.54 167.161C186.917 166.884 186.407 166.52 186.009 166.069C185.611 165.618 185.364 165.109 185.269 164.542C185.176 163.97 185.27 163.368 185.552 162.735C185.736 162.321 185.983 161.978 186.292 161.705C186.609 161.43 186.969 161.229 187.374 161.101C187.783 160.975 188.219 160.932 188.68 160.972C189.148 161.01 189.624 161.136 190.11 161.353C190.747 161.636 191.261 162.013 191.65 162.483C192.042 162.948 192.285 163.458 192.38 164.014C192.479 164.571 192.406 165.126 192.16 165.678ZM190.846 165.058C191.017 164.673 191.085 164.296 191.05 163.926C191.017 163.553 190.888 163.216 190.662 162.916C190.437 162.616 190.126 162.378 189.731 162.202C189.327 162.022 188.94 161.949 188.571 161.985C188.207 162.022 187.877 162.154 187.582 162.382C187.289 162.605 187.056 162.909 186.885 163.295C186.707 163.694 186.633 164.072 186.663 164.427C186.699 164.78 186.831 165.098 187.059 165.382C187.293 165.663 187.614 165.894 188.023 166.077C188.433 166.259 188.818 166.342 189.178 166.326C189.541 166.305 189.863 166.189 190.145 165.978C190.434 165.765 190.668 165.458 190.846 165.058ZM194.088 160.695C193.864 161.2 193.528 161.595 193.082 161.88C192.635 162.166 192.129 162.323 191.564 162.351C190.998 162.378 190.423 162.262 189.838 162.001C189.243 161.736 188.765 161.384 188.402 160.943C188.044 160.504 187.825 160.025 187.743 159.504C187.661 158.983 187.733 158.47 187.957 157.966C188.226 157.361 188.586 156.906 189.036 156.599C189.491 156.294 189.999 156.132 190.56 156.114C191.122 156.096 191.697 156.218 192.287 156.481C192.882 156.746 193.36 157.093 193.722 157.522C194.084 157.951 194.302 158.436 194.375 158.976C194.453 159.518 194.357 160.091 194.088 160.695ZM192.758 160.129C192.913 159.781 192.976 159.442 192.947 159.11C192.918 158.777 192.807 158.477 192.613 158.208C192.421 157.935 192.151 157.721 191.804 157.566C191.457 157.411 191.119 157.349 190.792 157.38C190.472 157.409 190.178 157.523 189.912 157.724C189.651 157.927 189.438 158.212 189.275 158.578C189.116 158.935 189.049 159.278 189.073 159.608C189.102 159.94 189.214 160.239 189.411 160.503C189.607 160.767 189.878 160.976 190.226 161.131C190.573 161.285 190.908 161.346 191.23 161.313C191.558 161.282 191.855 161.166 192.121 160.965C192.387 160.764 192.599 160.486 192.758 160.129ZM201.784 166.114L201.078 167.699C200.699 168.55 200.303 169.235 199.89 169.752C199.477 170.27 199.049 170.643 198.605 170.873C198.16 171.103 197.7 171.209 197.223 171.19C196.754 171.169 196.267 171.047 195.762 170.822C195.363 170.644 195.016 170.43 194.723 170.18C194.43 169.929 194.196 169.634 194.022 169.295C193.855 168.952 193.756 168.56 193.725 168.119C193.693 167.677 193.741 167.18 193.868 166.626C193.994 166.072 194.209 165.455 194.512 164.775L195.218 163.191C195.597 162.339 195.991 161.659 196.399 161.151C196.813 160.645 197.239 160.282 197.68 160.062C198.122 159.837 198.577 159.738 199.044 159.763C199.516 159.791 200.002 159.916 200.502 160.139C200.906 160.319 201.255 160.534 201.548 160.784C201.849 161.032 202.084 161.322 202.255 161.655C202.429 161.983 202.53 162.364 202.559 162.799C202.594 163.231 202.55 163.721 202.425 164.27C202.3 164.819 202.087 165.434 201.784 166.114ZM199.655 167.322L200.555 165.302C200.762 164.836 200.916 164.414 201.016 164.036C201.122 163.656 201.179 163.316 201.187 163.018C201.194 162.719 201.152 162.455 201.06 162.226C200.973 161.999 200.841 161.803 200.663 161.639C200.493 161.471 200.279 161.331 200.022 161.216C199.708 161.076 199.403 161.012 199.108 161.023C198.814 161.029 198.528 161.121 198.249 161.299C197.975 161.479 197.704 161.755 197.436 162.126C197.168 162.497 196.904 162.975 196.644 163.56L195.744 165.58C195.537 166.047 195.38 166.47 195.273 166.85C195.171 167.232 195.117 167.579 195.11 167.889C195.105 168.195 195.144 168.466 195.227 168.702C195.31 168.939 195.435 169.143 195.604 169.315C195.779 169.484 195.993 169.625 196.245 169.737C196.569 169.881 196.88 169.945 197.177 169.93C197.475 169.914 197.763 169.811 198.041 169.622C198.327 169.429 198.602 169.144 198.867 168.766C199.134 168.384 199.397 167.902 199.655 167.322ZM210.006 169.775L209.3 171.359C208.921 172.211 208.525 172.895 208.112 173.413C207.699 173.93 207.271 174.304 206.826 174.534C206.382 174.763 205.922 174.869 205.445 174.851C204.976 174.83 204.489 174.707 203.984 174.483C203.585 174.305 203.238 174.091 202.945 173.84C202.651 173.59 202.418 173.295 202.244 172.955C202.077 172.613 201.978 172.221 201.947 171.78C201.915 171.338 201.963 170.84 202.09 170.287C202.216 169.733 202.431 169.116 202.734 168.436L203.44 166.851C203.819 166 204.213 165.32 204.621 164.812C205.035 164.306 205.461 163.943 205.901 163.723C206.344 163.498 206.799 163.398 207.266 163.424C207.738 163.452 208.224 163.577 208.724 163.799C209.128 163.979 209.477 164.194 209.77 164.445C210.071 164.692 210.306 164.983 210.477 165.315C210.651 165.643 210.752 166.025 210.78 166.459C210.816 166.892 210.772 167.382 210.647 167.931C210.522 168.48 210.309 169.094 210.006 169.775ZM207.877 170.982L208.777 168.962C208.984 168.496 209.138 168.074 209.238 167.697C209.344 167.317 209.401 166.977 209.409 166.678C209.416 166.38 209.374 166.116 209.282 165.887C209.195 165.66 209.063 165.464 208.885 165.299C208.715 165.132 208.501 164.991 208.244 164.877C207.93 164.737 207.625 164.673 207.329 164.684C207.036 164.69 206.75 164.782 206.471 164.96C206.197 165.14 205.926 165.416 205.658 165.787C205.39 166.158 205.126 166.636 204.866 167.221L203.966 169.241C203.759 169.707 203.602 170.13 203.495 170.511C203.393 170.893 203.339 171.239 203.332 171.55C203.327 171.855 203.366 172.126 203.449 172.363C203.532 172.599 203.657 172.803 203.826 172.975C204.001 173.145 204.215 173.286 204.467 173.398C204.791 173.542 205.101 173.606 205.399 173.59C205.697 173.575 205.985 173.472 206.263 173.282C206.548 173.09 206.824 172.805 207.089 172.427C207.356 172.044 207.619 171.563 207.877 170.982Z" fill="white"/>
<path d="M219.357 100.805C219.62 100.214 219.76 99.6505 219.775 99.1155C219.808 98.5742 219.681 98.0172 219.394 97.4447C219.118 96.8774 218.661 96.25 218.022 95.5625C217.395 94.8802 216.561 94.0992 215.522 93.2194C214.434 92.2906 213.487 91.3754 212.679 90.4738C211.877 89.5607 211.248 88.6483 210.792 87.7367C210.336 86.825 210.087 85.9013 210.045 84.9655C210.004 84.0296 210.202 83.0688 210.641 82.083C211.08 81.0972 211.688 80.2771 212.466 79.6228C213.244 78.9685 214.146 78.5018 215.174 78.2228C216.218 77.9373 217.345 77.8555 218.556 77.9775C219.766 78.0994 221.021 78.4496 222.319 79.0279C224.222 79.8748 225.671 80.9578 226.668 82.2771C227.681 83.59 228.275 84.9871 228.45 86.4682C228.629 87.9378 228.425 89.3337 227.836 90.6559L224.496 89.1687C224.919 88.2177 225.091 87.2865 225.01 86.3751C224.935 85.4521 224.578 84.5986 223.941 83.8144C223.308 83.0187 222.36 82.3394 221.096 81.7766C219.901 81.2447 218.835 80.9856 217.898 80.9991C216.961 81.0127 216.164 81.2416 215.508 81.6859C214.863 82.1354 214.365 82.7544 214.014 83.543C213.776 84.0765 213.67 84.6127 213.694 85.1515C213.735 85.6839 213.91 86.2415 214.221 86.8244C214.543 87.4124 215.005 88.0282 215.608 88.6718C216.222 89.3206 216.987 90.0223 217.901 90.777C219.159 91.8232 220.198 92.828 221.02 93.7914C221.842 94.7549 222.45 95.6995 222.844 96.6252C223.254 97.5446 223.446 98.4709 223.42 99.4041C223.41 100.331 223.186 101.287 222.747 102.273C222.287 103.305 221.663 104.146 220.874 104.795C220.084 105.444 219.17 105.891 218.129 106.137C217.089 106.383 215.951 106.425 214.716 106.264C213.498 106.097 212.223 105.717 210.889 105.123C209.717 104.601 208.636 103.925 207.644 103.095C206.663 102.269 205.854 101.325 205.215 100.262C204.588 99.2048 204.208 98.0767 204.075 96.8778C203.958 95.6725 204.181 94.4378 204.744 93.1736L208.084 94.6608C207.697 95.5306 207.532 96.3535 207.59 97.1296C207.652 97.894 207.883 98.6083 208.282 99.2724C208.693 99.9416 209.226 100.54 209.88 101.068C210.551 101.589 211.293 102.03 212.105 102.392C213.276 102.913 214.34 103.192 215.297 103.229C216.253 103.266 217.074 103.076 217.76 102.658C218.458 102.246 218.99 101.629 219.357 100.805ZM238.796 86.7805L227.518 112.11L224.161 110.615L235.438 85.2856L238.796 86.7805ZM254.087 93.5888L238.303 100.715L229.654 104.223L230.693 100.391L237.331 97.4681L250.051 91.7918L254.087 93.5888ZM239.574 117.478L235.697 100.951L238.882 99.1802L243.575 119.259L239.574 117.478ZM261.411 96.8496L250.134 122.179L246.776 120.684L258.054 95.3548L261.411 96.8496ZM267.834 115.572L266.657 118.217L258.167 114.437L259.344 111.792L267.834 115.572ZM279.851 123.508L273.084 120.495L274.3 117.763L281.067 120.776C282.378 121.36 283.532 121.623 284.53 121.567C285.527 121.511 286.377 121.195 287.079 120.618C287.792 120.046 288.36 119.285 288.784 118.334C289.171 117.464 289.344 116.561 289.302 115.625C289.271 114.694 288.954 113.816 288.348 112.991C287.748 112.154 286.793 111.444 285.482 110.86L279.498 108.196L269.444 130.777L266.087 129.282L277.364 103.952L286.706 108.112C288.62 108.964 290.09 110.014 291.118 111.264C292.146 112.514 292.741 113.877 292.904 115.353C293.072 116.817 292.823 118.297 292.157 119.794C291.434 121.417 290.475 122.651 289.279 123.494C288.084 124.338 286.691 124.767 285.1 124.781C283.514 124.784 281.765 124.36 279.851 123.508ZM305.817 119.309L287.154 138.661L283.727 137.136L304.659 116.105L306.869 117.089L305.817 119.309ZM302.567 145.524L304.443 118.698L305.39 116.43L307.599 117.414L306.012 147.058L302.567 145.524ZM306.307 135.954L305.083 138.702L290.853 132.366L292.077 129.618L306.307 135.954ZM325.754 148.176C326.018 147.585 326.157 147.022 326.173 146.487C326.206 145.945 326.078 145.389 325.791 144.816C325.516 144.249 325.059 143.621 324.42 142.934C323.792 142.252 322.959 141.47 321.919 140.591C320.832 139.662 319.885 138.747 319.077 137.845C318.274 136.932 317.645 136.02 317.19 135.108C316.734 134.196 316.485 133.273 316.443 132.337C316.401 131.401 316.6 130.44 317.039 129.454C317.478 128.468 318.086 127.648 318.864 126.994C319.641 126.34 320.544 125.873 321.571 125.594C322.616 125.309 323.743 125.227 324.953 125.349C326.164 125.471 327.418 125.821 328.717 126.399C330.619 127.246 332.069 128.329 333.065 129.648C334.079 130.961 334.673 132.358 334.847 133.84C335.027 135.309 334.822 136.705 334.234 138.027L330.894 136.54C331.317 135.589 331.488 134.658 331.408 133.746C331.332 132.823 330.976 131.97 330.338 131.186C329.706 130.39 328.758 129.711 327.493 129.148C326.299 128.616 325.233 128.357 324.296 128.37C323.359 128.384 322.562 128.613 321.906 129.057C321.261 129.507 320.763 130.126 320.412 130.914C320.174 131.448 320.067 131.984 320.092 132.523C320.133 133.055 320.308 133.613 320.618 134.196C320.94 134.784 321.403 135.399 322.005 136.043C322.62 136.692 323.384 137.394 324.299 138.148C325.557 139.194 326.596 140.199 327.418 141.163C328.24 142.126 328.847 143.071 329.241 143.997C329.652 144.916 329.844 145.842 329.818 146.775C329.808 147.702 329.584 148.658 329.145 149.644C328.685 150.677 328.061 151.517 327.271 152.166C326.482 152.815 325.567 153.263 324.527 153.508C323.487 153.754 322.349 153.796 321.114 153.636C319.896 153.469 318.62 153.088 317.287 152.494C316.115 151.973 315.033 151.297 314.041 150.466C313.061 149.64 312.252 148.696 311.613 147.634C310.986 146.576 310.606 145.448 310.472 144.249C310.356 143.044 310.579 141.809 311.142 140.545L314.482 142.032C314.095 142.902 313.93 143.725 313.987 144.501C314.05 145.265 314.281 145.98 314.68 146.644C315.091 147.313 315.623 147.911 316.278 148.439C316.949 148.96 317.691 149.402 318.503 149.763C319.674 150.285 320.738 150.564 321.694 150.6C322.651 150.637 323.472 150.447 324.158 150.03C324.856 149.618 325.388 149 325.754 148.176ZM346.909 157.595C347.172 157.003 347.312 156.44 347.327 155.905C347.36 155.364 347.233 154.807 346.946 154.235C346.67 153.667 346.213 153.04 345.574 152.352C344.947 151.67 344.113 150.889 343.074 150.009C341.986 149.08 341.039 148.165 340.231 147.264C339.429 146.351 338.8 145.438 338.344 144.526C337.888 143.615 337.639 142.691 337.597 141.755C337.556 140.819 337.754 139.859 338.193 138.873C338.632 137.887 339.24 137.067 340.018 136.413C340.796 135.758 341.698 135.292 342.726 135.013C343.77 134.727 344.897 134.645 346.108 134.767C347.318 134.889 348.573 135.239 349.871 135.818C351.774 136.665 353.223 137.748 354.22 139.067C355.233 140.38 355.827 141.777 356.002 143.258C356.181 144.728 355.977 146.124 355.388 147.446L352.048 145.959C352.471 145.008 352.643 144.076 352.562 143.165C352.487 142.242 352.13 141.388 351.493 140.604C350.86 139.809 349.912 139.129 348.648 138.566C347.453 138.035 346.387 137.775 345.45 137.789C344.513 137.803 343.716 138.031 343.06 138.476C342.415 138.925 341.917 139.544 341.566 140.333C341.328 140.866 341.222 141.403 341.246 141.941C341.287 142.474 341.462 143.031 341.773 143.614C342.095 144.202 342.557 144.818 343.16 145.462C343.774 146.11 344.539 146.812 345.453 147.567C346.711 148.613 347.75 149.618 348.572 150.581C349.394 151.545 350.002 152.489 350.396 153.415C350.806 154.334 350.998 155.261 350.972 156.194C350.962 157.121 350.738 158.077 350.299 159.063C349.839 160.095 349.215 160.936 348.426 161.585C347.636 162.234 346.722 162.681 345.681 162.927C344.641 163.172 343.503 163.215 342.268 163.054C341.05 162.887 339.775 162.507 338.441 161.913C337.269 161.391 336.188 160.715 335.196 159.884C334.215 159.059 333.406 158.115 332.767 157.052C332.14 155.995 331.76 154.867 331.627 153.668C331.51 152.462 331.733 151.228 332.296 149.963L335.636 151.451C335.249 152.32 335.084 153.143 335.142 153.919C335.204 154.684 335.435 155.398 335.834 156.062C336.245 156.731 336.778 157.33 337.432 157.858C338.103 158.379 338.845 158.82 339.657 159.182C340.828 159.703 341.892 159.982 342.849 160.019C343.805 160.056 344.626 159.865 345.312 159.448C346.01 159.036 346.542 158.418 346.909 157.595Z" fill="white"/>
<path d="M186.128 27.4747L136.06 55.9182L148.424 112.158L199.324 84.0848L186.128 27.4747Z" stroke="white"/>
<g clip-path="url(#clip0_349_4)">
<path d="M160.445 92.2018L160.486 92.6684L161.181 92.1402C161.181 92.1402 162.444 90.9748 162.063 91.9267C161.882 92.8864 162.396 92.0157 162.396 92.0157C162.477 91.928 163.663 89.874 162.693 92.3207C161.723 94.7659 162.88 92.5234 162.927 92.6184C163.653 94.0739 163.98 97.4564 163.98 97.4564L160.781 96.0321L160.804 96.2996L164.258 97.8374L163.54 89.6427L160.445 92.2018Z" fill="white"/>
<path d="M159.875 91.379L159.816 90.7047L158.824 79.4185L145.823 90.1707L155.338 94.4074L160.335 96.632L160.301 96.2441L159.875 91.379ZM156.133 94.2201L155.764 94.0558L146.775 90.0535L153.867 84.6654C153.867 84.6654 156.523 82.2183 155.721 84.2155C155.341 86.2314 156.423 84.4033 156.423 84.4033C156.59 84.2201 159.082 79.9036 157.046 85.0427C155.01 90.1823 157.437 85.4681 157.537 85.6686C158.228 87.0571 158.747 89.2781 159.109 91.2897C159.144 91.4892 159.179 91.687 159.212 91.8819C159.576 94.0459 159.748 95.8296 159.748 95.8296L156.133 94.2201Z" fill="white"/>
<path d="M160.528 84.7663L160.935 87.964L163.991 89.3245L166.64 87.4877L166.232 84.2899L163.176 82.9294L160.528 84.7663ZM162.691 86.0065L161.888 85.6489L161.991 85.4183L162.794 85.7758L162.691 86.0065ZM165.316 84.8471L165.447 86.5154L162.048 85.0021L163.375 83.983L165.316 84.8471Z" fill="white"/>
<path d="M165.84 83.1215L164.307 82.439L164.117 82.8656L165.65 83.5481L165.84 83.1215Z" fill="white"/>
<path d="M166.368 81.0963L166.43 81.0432L165.55 80.089L165.499 80.1326L161.534 75.7413L161.167 76.0478L165.136 80.4435L165.13 80.4477L165.315 80.6484L165.264 80.6964L165.779 81.945L165.005 82.2199L165.136 82.5354L166.231 82.1461L165.858 81.2435L172.029 88.0788L172.395 87.7722L166.368 81.0963Z" fill="white"/>
</g>
<line y1="-0.297343" x2="62.3171" y2="-0.297343" transform="matrix(0.917217 0.398389 -0.399149 0.916886 139.295 58.2012)" stroke="white" stroke-width="0.594686"/>
<path d="M152.456 59.4538C152.536 59.2734 152.579 59.1017 152.583 58.9385C152.593 58.7734 152.554 58.6036 152.467 58.429C152.383 58.256 152.243 58.0646 152.049 57.855C151.857 57.6469 151.603 57.4087 151.286 57.1404C150.954 56.8571 150.666 56.578 150.419 56.3031C150.175 56.0246 149.983 55.7464 149.844 55.4684C149.705 55.1903 149.629 54.9086 149.616 54.6232C149.603 54.3378 149.664 54.0448 149.798 53.7442C149.931 53.4435 150.117 53.1934 150.354 52.9939C150.591 52.7943 150.867 52.652 151.18 52.5669C151.498 52.4799 151.842 52.4549 152.211 52.4921C152.58 52.5293 152.963 52.6361 153.359 52.8125C153.939 53.0707 154.381 53.401 154.685 53.8034C154.994 54.2038 155.176 54.6298 155.229 55.0815C155.283 55.5297 155.221 55.9554 155.042 56.3586L154.023 55.9051C154.152 55.6151 154.204 55.3311 154.18 55.0531C154.157 54.7716 154.048 54.5113 153.854 54.2722C153.661 54.0295 153.372 53.8224 152.986 53.6507C152.622 53.4885 152.297 53.4095 152.011 53.4136C151.725 53.4178 151.482 53.4876 151.282 53.6231C151.085 53.7601 150.933 53.9489 150.826 54.1894C150.754 54.3521 150.721 54.5156 150.729 54.68C150.741 54.8423 150.795 55.0124 150.889 55.1901C150.987 55.3695 151.128 55.5573 151.312 55.7535C151.5 55.9514 151.733 56.1654 152.012 56.3955C152.395 56.7146 152.712 57.021 152.963 57.3149C153.214 57.6087 153.399 57.8967 153.519 58.1791C153.644 58.4594 153.703 58.7419 153.695 59.0265C153.692 59.3092 153.623 59.6008 153.49 59.9015C153.349 60.2162 153.159 60.4726 152.918 60.6706C152.678 60.8686 152.399 61.005 152.081 61.0799C151.764 61.1547 151.417 61.1677 151.041 61.1187C150.669 61.0677 150.28 60.9517 149.873 60.7706C149.516 60.6116 149.186 60.4054 148.884 60.152C148.585 59.9002 148.338 59.6123 148.143 59.2882C147.952 58.9658 147.836 58.6217 147.795 58.2561C147.76 57.8885 147.828 57.512 147.999 57.1265L149.018 57.58C148.9 57.8452 148.85 58.0962 148.867 58.3329C148.886 58.566 148.957 58.7838 149.078 58.9864C149.204 59.1905 149.366 59.373 149.566 59.5339C149.77 59.6928 149.997 59.8274 150.244 59.9377C150.601 60.0967 150.926 60.1818 151.217 60.193C151.509 60.2042 151.76 60.1462 151.969 60.019C152.182 59.8933 152.344 59.7049 152.456 59.4538ZM158.384 55.1768L154.945 62.9014L153.921 62.4455L157.36 54.7209L158.384 55.1768ZM163.047 57.2531L158.234 59.4263L155.596 60.496L155.913 59.3275L157.937 58.4361L161.817 56.705L163.047 57.2531ZM158.621 64.5384L157.439 59.4984L158.41 58.9583L159.842 65.0817L158.621 64.5384ZM165.281 58.2475L161.842 65.9722L160.818 65.5163L164.257 57.7916L165.281 58.2475ZM167.24 63.9573L166.881 64.7637L164.292 63.611L164.651 62.8046L167.24 63.9573ZM170.905 66.3773L168.841 65.4584L169.212 64.6255L171.275 65.5444C171.675 65.7223 172.027 65.8027 172.331 65.7856C172.636 65.7685 172.895 65.672 173.109 65.496C173.326 65.3216 173.499 65.0894 173.629 64.7994C173.747 64.5341 173.799 64.2588 173.787 63.9734C173.777 63.6895 173.68 63.4218 173.496 63.1701C173.313 62.9148 173.021 62.6982 172.622 62.5203L170.797 61.7077L167.731 68.5941L166.707 68.1382L170.146 60.4136L172.995 61.682C173.579 61.9419 174.027 62.2623 174.341 62.6435C174.654 63.0246 174.836 63.4402 174.885 63.8904C174.936 64.337 174.86 64.7884 174.657 65.2447C174.437 65.7398 174.144 66.116 173.78 66.3733C173.415 66.6305 172.99 66.7614 172.505 66.7658C172.022 66.7666 171.488 66.6371 170.905 66.3773ZM178.823 65.097L173.132 70.9988L172.086 70.5334L178.47 64.1197L179.144 64.4197L178.823 65.097ZM177.832 73.0916L178.404 64.9104L178.693 64.2189L179.367 64.5189L178.883 73.5593L177.832 73.0916ZM178.973 70.1729L178.6 71.0112L174.26 69.079L174.633 68.2407L178.973 70.1729ZM183.356 66.2952L185.914 67.4338C186.494 67.692 186.944 67.9986 187.265 68.3534C187.59 68.7097 187.779 69.1077 187.833 69.5472C187.893 69.9848 187.811 70.4547 187.587 70.9569C187.43 71.3106 187.213 71.602 186.937 71.831C186.667 72.058 186.351 72.2142 185.991 72.2997C185.636 72.3832 185.251 72.3918 184.836 72.3255L184.499 72.3093L182.096 71.2393L182.456 70.4016L184.271 71.2095C184.639 71.3733 184.973 71.4458 185.274 71.4271C185.576 71.4049 185.838 71.3117 186.059 71.1476C186.281 70.9834 186.45 70.7687 186.569 70.5034C186.701 70.2063 186.758 69.9203 186.741 69.6455C186.723 69.3708 186.616 69.1173 186.418 68.8853C186.226 68.6512 185.933 68.4468 185.54 68.272L184.007 67.5894L180.941 74.4758L179.917 74.0199L183.356 66.2952ZM184.432 76.0301L184.113 71.6923L185.182 72.1618L185.553 76.453L185.525 76.5167L184.432 76.0301ZM191.076 69.7321L187.637 77.4568L186.613 77.0009L190.052 69.2762L191.076 69.7321ZM195.739 71.8084L190.926 73.9817L188.288 75.0514L188.605 73.8829L190.629 72.9915L194.508 71.2604L195.739 71.8084ZM191.313 79.0937L190.131 74.0537L191.102 73.5136L192.533 79.637L191.313 79.0937Z" fill="#FFFEFE"/>
<g filter="url(#filter1_bd_349_4)">
<rect x="16.0078" y="199.956" width="270" height="144" rx="4" transform="rotate(-21.5 16.0078 199.956)" fill="url(#paint2_linear_349_4)" shape-rendering="crispEdges"/>
<rect x="16.0078" y="199.956" width="270" height="144" rx="4" transform="rotate(-21.5 16.0078 199.956)" fill="url(#paint3_linear_349_4)" fill-opacity="0.22" shape-rendering="crispEdges"/>
</g>
<path d="M65.6299 291.308L68.728 299.173L67.376 299.706L64.2779 291.841L65.6299 291.308ZM68.2685 290.269L68.698 291.359L62.1197 293.95L61.6902 292.86L68.2685 290.269ZM75.429 296.701C74.8815 296.917 74.3485 297.021 73.8301 297.012C73.3147 296.997 72.8303 296.883 72.3768 296.669C71.9282 296.454 71.5275 296.148 71.1746 295.749C70.8217 295.351 70.5365 294.875 70.3189 294.323L70.1986 294.018C69.9467 293.378 69.8169 292.771 69.8093 292.198C69.7997 291.619 69.8886 291.092 70.0758 290.615C70.2631 290.138 70.5273 289.729 70.8686 289.387C71.2099 289.046 71.601 288.788 72.042 288.614C72.6041 288.393 73.1269 288.299 73.6103 288.333C74.0985 288.364 74.5422 288.503 74.9413 288.749C75.3386 288.99 75.6927 289.32 76.0039 289.741C76.3131 290.156 76.5766 290.64 76.7942 291.193L77.0318 291.796L71.1586 294.11L70.7262 293.012L75.2547 291.228L75.2146 291.126C75.0578 290.785 74.8515 290.475 74.5957 290.195C74.3448 289.913 74.044 289.718 73.6935 289.61C73.343 289.501 72.9376 289.538 72.4772 289.719C72.1719 289.84 71.9166 290.016 71.7113 290.248C71.5041 290.475 71.3581 290.751 71.2732 291.075C71.1883 291.4 71.1666 291.764 71.208 292.167C71.2494 292.571 71.3636 293.01 71.5507 293.485L71.6709 293.79C71.8179 294.163 72.0072 294.495 72.2387 294.784C72.4732 295.067 72.7385 295.293 73.0345 295.462C73.3354 295.628 73.6565 295.726 73.9978 295.754C74.3439 295.78 74.7011 295.72 75.0694 295.575C75.5443 295.388 75.9083 295.133 76.1615 294.809C76.4146 294.486 76.6009 294.113 76.7201 293.691L77.7891 294.017C77.7206 294.341 77.6014 294.67 77.4313 295.006C77.2613 295.342 77.0134 295.658 76.6879 295.954C76.3672 296.248 75.9476 296.497 75.429 296.701ZM82.1594 284.797L82.5975 285.909L78.7958 287.407L78.3578 286.295L82.1594 284.797ZM83.3442 284.33L86.4423 292.195L85.0975 292.725L81.9995 284.86L83.3442 284.33ZM78.0307 286.423L79.3827 285.891L80.6738 289.765C80.8708 290.365 81.0193 290.906 81.1193 291.387C81.2223 291.861 81.2713 292.284 81.2664 292.656C81.2664 293.025 81.2096 293.35 81.0959 293.63C80.9852 293.903 80.8157 294.14 80.5873 294.342C80.3571 294.539 80.0675 294.706 79.7186 294.844L79.297 295.01L78.8303 293.825L79.1124 293.689C79.3151 293.592 79.4729 293.474 79.5858 293.334C79.7036 293.193 79.7818 293.022 79.8206 292.822C79.8575 292.617 79.8568 292.374 79.8186 292.092C79.7853 291.809 79.7159 291.483 79.6105 291.116C79.5099 290.747 79.3768 290.324 79.211 289.846L78.0307 286.423ZM91.9294 290.202C91.3818 290.417 90.8489 290.521 90.3305 290.513C89.8151 290.497 89.3306 290.383 88.8772 290.17C88.4286 289.955 88.0278 289.648 87.675 289.249C87.3221 288.851 87.0369 288.376 86.8193 287.823L86.699 287.518C86.4471 286.878 86.3173 286.272 86.3096 285.698C86.3001 285.12 86.389 284.592 86.5762 284.115C86.7634 283.638 87.0277 283.229 87.369 282.888C87.7102 282.546 88.1014 282.289 88.5424 282.115C89.1045 281.893 89.6272 281.799 90.1107 281.833C90.5989 281.864 91.0426 282.003 91.4417 282.249C91.8389 282.49 92.1931 282.821 92.5043 283.241C92.8135 283.657 93.0769 284.141 93.2946 284.693L93.5322 285.296L87.6589 287.61L87.2266 286.512L91.7551 284.729L91.715 284.627C91.5582 284.286 91.3519 283.975 91.0961 283.695C90.8451 283.413 90.5444 283.218 90.1939 283.11C89.8434 283.002 89.4379 283.038 88.9776 283.22C88.6723 283.34 88.417 283.516 88.2117 283.748C88.0045 283.975 87.8584 284.251 87.7736 284.576C87.6887 284.9 87.6669 285.264 87.7083 285.668C87.7497 286.071 87.864 286.51 88.051 286.985L88.1713 287.291C88.3183 287.664 88.5075 287.995 88.7391 288.285C88.9736 288.567 89.2389 288.793 89.5349 288.962C89.8358 289.129 90.1569 289.226 90.4981 289.254C90.8443 289.28 91.2015 289.221 91.5697 289.076C92.0446 288.888 92.4087 288.633 92.6619 288.309C92.915 287.986 93.1012 287.613 93.2205 287.191L94.2894 287.517C94.221 287.841 94.1017 288.171 93.9317 288.506C93.7616 288.842 93.5138 289.158 93.1883 289.454C92.8675 289.748 92.4479 289.998 91.9294 290.202ZM104.05 280.876L104.11 281.029C104.328 281.581 104.468 282.114 104.53 282.627C104.59 283.135 104.566 283.606 104.457 284.041C104.353 284.474 104.162 284.854 103.883 285.183C103.601 285.506 103.228 285.76 102.763 285.943C102.38 286.094 102.023 286.175 101.692 286.188C101.36 286.196 101.052 286.141 100.771 286.022C100.494 285.902 100.24 285.727 100.01 285.499C99.7832 285.264 99.5792 284.98 99.3982 284.648L98.0238 281.159C97.9204 280.769 97.8687 280.403 97.8685 280.062C97.8732 279.718 97.9339 279.403 98.0505 279.117C98.1719 278.828 98.3537 278.572 98.5957 278.348C98.8377 278.124 99.1501 277.936 99.5329 277.786C99.9109 277.637 100.277 277.571 100.631 277.588C100.988 277.599 101.329 277.683 101.654 277.84C101.984 277.996 102.292 278.218 102.58 278.508C102.871 278.791 103.14 279.133 103.387 279.534C103.635 279.934 103.856 280.382 104.05 280.876ZM102.766 281.559L102.706 281.406C102.572 281.067 102.421 280.754 102.252 280.468C102.086 280.175 101.904 279.919 101.706 279.7C101.511 279.475 101.3 279.295 101.074 279.16C100.847 279.026 100.606 278.947 100.351 278.924C100.101 278.9 99.8397 278.941 99.5683 279.048C99.2776 279.162 99.0496 279.294 98.8844 279.443C98.724 279.59 98.6144 279.746 98.5555 279.909C98.4947 280.067 98.4659 280.221 98.469 280.371L100.264 284.929C100.364 285.012 100.489 285.081 100.639 285.134C100.787 285.182 100.967 285.2 101.181 285.189C101.393 285.172 101.642 285.108 101.928 284.995C102.267 284.862 102.529 284.68 102.713 284.451C102.9 284.215 103.02 283.944 103.072 283.638C103.13 283.329 103.129 283 103.069 282.648C103.014 282.295 102.913 281.932 102.766 281.559ZM94.7699 284.708L94.7098 284.556C94.5151 284.061 94.3715 283.583 94.2792 283.121C94.1868 282.66 94.1504 282.226 94.17 281.821C94.1876 281.411 94.2616 281.037 94.392 280.701C94.5273 280.362 94.7194 280.068 94.9683 279.819C95.2201 279.563 95.535 279.36 95.913 279.211C96.2861 279.064 96.6328 278.992 96.9529 278.995C97.2779 278.996 97.5783 279.062 97.8542 279.194C98.1301 279.326 98.3845 279.517 98.6172 279.767C98.85 280.017 99.064 280.319 99.2595 280.673L100.579 284.024C100.681 284.409 100.732 284.772 100.732 285.114C100.732 285.455 100.677 285.771 100.567 286.06C100.456 286.345 100.279 286.599 100.037 286.824C99.7995 287.046 99.4919 287.231 99.1139 287.38C98.6487 287.563 98.203 287.633 97.7767 287.588C97.3485 287.538 96.9464 287.391 96.5705 287.148C96.1995 286.902 95.8602 286.574 95.5529 286.163C95.2485 285.746 94.9875 285.261 94.7699 284.708ZM96.0618 284.023L96.1219 284.176C96.2689 284.549 96.4378 284.885 96.6287 285.185C96.8245 285.483 97.0413 285.728 97.2792 285.92C97.5219 286.11 97.7872 286.229 98.0752 286.278C98.3612 286.322 98.6739 286.277 99.0131 286.144C99.3038 286.029 99.5294 285.898 99.6898 285.751C99.8501 285.604 99.9631 285.45 100.029 285.29C100.094 285.13 100.131 284.975 100.14 284.826L98.3963 280.4C98.2963 280.288 98.1676 280.196 98.0104 280.123C97.856 280.044 97.6701 280.006 97.4524 280.007C97.2348 280.009 96.9782 280.068 96.6826 280.185C96.3434 280.318 96.0875 280.514 95.9149 280.772C95.7424 281.031 95.6397 281.332 95.607 281.675C95.5791 282.016 95.6057 282.389 95.6867 282.794C95.7707 283.192 95.8957 283.601 96.0618 284.023ZM101.335 289.822L95.7461 275.633L97.0981 275.1L102.687 289.289L101.335 289.822ZM105.433 280.273L105.367 280.106C105.144 279.539 105.019 278.98 104.993 278.431C104.965 277.876 105.035 277.359 105.204 276.878C105.371 276.393 105.636 275.964 105.999 275.591C106.36 275.214 106.814 274.917 107.362 274.702C107.914 274.484 108.451 274.39 108.972 274.42C109.496 274.443 109.985 274.575 110.438 274.817C110.894 275.051 111.301 275.381 111.659 275.805C112.014 276.225 112.304 276.718 112.527 277.285L112.593 277.452C112.816 278.019 112.941 278.578 112.967 279.127C112.993 279.677 112.92 280.195 112.749 280.683C112.58 281.163 112.315 281.592 111.954 281.97C111.596 282.34 111.141 282.634 110.589 282.852C110.036 283.069 109.5 283.166 108.981 283.141C108.46 283.111 107.971 282.979 107.515 282.744C107.062 282.503 106.657 282.172 106.302 281.753C105.946 281.333 105.656 280.84 105.433 280.273ZM106.712 279.576L106.778 279.743C106.933 280.136 107.125 280.488 107.354 280.801C107.582 281.109 107.84 281.359 108.129 281.553C108.423 281.745 108.741 281.864 109.083 281.908C109.424 281.948 109.78 281.894 110.153 281.747C110.522 281.602 110.814 281.4 111.031 281.141C111.251 280.875 111.401 280.572 111.48 280.233C111.559 279.894 111.577 279.535 111.534 279.154C111.493 278.767 111.396 278.377 111.241 277.985L111.175 277.818C111.022 277.43 110.83 277.083 110.597 276.777C110.368 276.465 110.106 276.212 109.812 276.02C109.521 275.822 109.205 275.7 108.862 275.656C108.525 275.609 108.17 275.66 107.797 275.807C107.428 275.952 107.134 276.157 106.914 276.423C106.699 276.687 106.551 276.992 106.468 277.337C106.389 277.677 106.372 278.039 106.418 278.424C106.461 278.804 106.559 279.188 106.712 279.576ZM119.374 274.076L119.804 275.166L115.646 276.804L115.216 275.714L119.374 274.076ZM114.157 272.193L117.255 280.058L115.91 280.588L112.812 272.723L114.157 272.193ZM119.122 270.237L122.22 278.102L120.868 278.635L117.77 270.77L119.122 270.237ZM77.8853 312.679C78.1392 313.323 78.2046 313.93 78.0817 314.499C77.9617 315.061 77.6931 315.559 77.2759 315.992C76.8636 316.423 76.34 316.764 75.7052 317.014C75.0704 317.264 74.4527 317.373 73.8523 317.34C73.2518 317.308 72.716 317.127 72.2448 316.798C71.7717 316.464 71.4082 315.975 71.1543 315.33C70.9882 314.908 70.9164 314.492 70.9389 314.08C70.9643 313.661 71.0733 313.263 71.2658 312.885C71.4632 312.505 71.7377 312.164 72.0894 311.863C72.444 311.556 72.8685 311.304 73.3628 311.11C74.0121 310.854 74.6409 310.752 75.249 310.803C75.8551 310.85 76.3895 311.034 76.852 311.356C77.3194 311.676 77.6639 312.116 77.8853 312.679ZM76.5218 313.182C76.3672 312.79 76.1459 312.476 75.858 312.243C75.5681 312.004 75.2371 311.86 74.865 311.811C74.4929 311.762 74.1057 311.816 73.7035 311.975C73.2916 312.137 72.9689 312.362 72.7352 312.65C72.5064 312.936 72.3698 313.264 72.3253 313.634C72.2789 314 72.333 314.379 72.4876 314.771C72.6479 315.178 72.8653 315.496 73.1398 315.723C73.4172 315.944 73.7366 316.073 74.0981 316.11C74.4626 316.14 74.8532 316.073 75.27 315.909C75.6867 315.745 76.0157 315.528 76.257 315.26C76.4964 314.986 76.6397 314.675 76.687 314.326C76.7372 313.971 76.6822 313.589 76.5218 313.182ZM75.6825 307.811C75.8849 308.325 75.9315 308.841 75.8223 309.36C75.7132 309.879 75.4704 310.35 75.0939 310.772C74.7174 311.195 74.2311 311.523 73.635 311.758C73.0293 311.997 72.4422 312.091 71.8738 312.041C71.3102 311.988 70.814 311.809 70.3852 311.502C69.9564 311.195 69.6409 310.785 69.4385 310.271C69.1961 309.655 69.1232 309.08 69.2199 308.543C69.3213 308.005 69.5622 307.53 69.9426 307.117C70.3229 306.704 70.8135 306.379 71.4144 306.142C72.0202 305.904 72.6029 305.806 73.1627 305.848C73.7225 305.891 74.2206 306.075 74.657 306.402C75.0982 306.726 75.4401 307.196 75.6825 307.811ZM74.3464 308.363C74.207 308.009 74.0088 307.726 73.7517 307.514C73.4945 307.302 73.2022 307.171 72.8746 307.12C72.545 307.066 72.2034 307.108 71.8497 307.247C71.4959 307.386 71.2154 307.584 71.008 307.839C70.8036 308.087 70.6797 308.377 70.6364 308.707C70.5979 309.036 70.6522 309.387 70.7991 309.76C70.9423 310.124 71.14 310.412 71.3923 310.626C71.6494 310.839 71.9408 310.967 72.2665 311.013C72.5922 311.058 72.932 311.011 73.2857 310.871C73.6395 310.732 73.9176 310.536 74.1201 310.282C74.3274 310.027 74.4528 309.734 74.4961 309.404C74.5394 309.073 74.4895 308.726 74.3464 308.363ZM89.9516 307.926C90.2055 308.57 90.271 309.177 90.1481 309.746C90.0281 310.308 89.7595 310.806 89.3423 311.239C88.9299 311.67 88.4064 312.01 87.7715 312.261C87.1367 312.511 86.5191 312.62 85.9186 312.587C85.3182 312.555 84.7824 312.374 84.3112 312.045C83.838 311.711 83.4745 311.221 83.2206 310.577C83.0546 310.155 82.9828 309.739 83.0053 309.327C83.0307 308.908 83.1396 308.51 83.3322 308.132C83.5295 307.752 83.8041 307.411 84.1558 307.11C84.5104 306.803 84.9349 306.551 85.4291 306.357C86.0785 306.101 86.7072 305.999 87.3153 306.05C87.9215 306.097 88.4558 306.281 88.9184 306.603C89.3858 306.922 89.7302 307.363 89.9516 307.926ZM88.5882 308.429C88.4336 308.037 88.2123 307.723 87.9243 307.49C87.6344 307.251 87.3035 307.107 86.9314 307.058C86.5593 307.009 86.1721 307.063 85.7699 307.222C85.358 307.384 85.0352 307.609 84.8016 307.897C84.5728 308.183 84.4361 308.511 84.3916 308.881C84.3452 309.247 84.3993 309.626 84.5539 310.018C84.7143 310.425 84.9317 310.743 85.2061 310.97C85.4835 311.191 85.803 311.32 86.1645 311.357C86.529 311.387 86.9196 311.32 87.3363 311.156C87.7531 310.992 88.0821 310.775 88.3234 310.507C88.5627 310.233 88.706 309.922 88.7533 309.573C88.8036 309.217 88.7485 308.836 88.5882 308.429ZM87.7489 303.058C87.9512 303.572 87.9978 304.088 87.8887 304.607C87.7796 305.126 87.5368 305.596 87.1602 306.019C86.7837 306.442 86.2974 306.77 85.7014 307.005C85.0956 307.244 84.5086 307.338 83.9401 307.287C83.3765 307.235 82.8803 307.056 82.4516 306.749C82.0228 306.442 81.7072 306.031 81.5049 305.518C81.2625 304.902 81.1896 304.327 81.2862 303.79C81.3877 303.252 81.6286 302.777 82.0089 302.364C82.3893 301.951 82.8799 301.626 83.4808 301.389C84.0865 301.151 84.6693 301.053 85.2291 301.095C85.7888 301.138 86.2869 301.322 86.7233 301.649C87.1646 301.973 87.5064 302.443 87.7489 303.058ZM86.4127 303.61C86.2734 303.256 86.0751 302.973 85.818 302.761C85.5609 302.549 85.2685 302.417 84.9409 302.367C84.6114 302.312 84.2698 302.355 83.916 302.494C83.5623 302.633 83.2817 302.831 83.0744 303.086C82.8699 303.334 82.7461 303.624 82.7027 303.954C82.6643 304.283 82.7185 304.634 82.8655 305.007C83.0087 305.37 83.2064 305.659 83.4587 305.873C83.7158 306.086 84.0072 306.214 84.3329 306.26C84.6586 306.305 84.9983 306.258 85.3521 306.118C85.7058 305.979 85.9839 305.783 86.1864 305.529C86.3938 305.274 86.5191 304.981 86.5625 304.651C86.6058 304.32 86.5559 303.973 86.4127 303.61ZM97.0078 301.367L97.6435 302.981C97.9852 303.849 98.1959 304.611 98.2756 305.268C98.3553 305.925 98.3214 306.493 98.1738 306.971C98.0262 307.449 97.7789 307.851 97.4319 308.178C97.0878 308.498 96.659 308.76 96.1453 308.962C95.7382 309.122 95.3426 309.219 94.9585 309.253C94.5743 309.287 94.2003 309.247 93.8362 309.133C93.4751 309.012 93.1261 308.808 92.7891 308.521C92.4521 308.234 92.1306 307.851 91.8246 307.372C91.5186 306.894 91.2291 306.308 90.9561 305.615L90.3205 304.002C89.9788 303.134 89.77 302.377 89.6941 301.729C89.623 301.08 89.6632 300.521 89.8146 300.053C89.9641 299.58 90.2118 299.186 90.5578 298.87C90.9086 298.553 91.3385 298.294 91.8473 298.094C92.2592 297.931 92.6572 297.833 93.0414 297.799C93.4284 297.759 93.8006 297.794 94.1579 297.905C94.5132 298.012 94.8561 298.207 95.1863 298.491C95.5195 298.769 95.8381 299.144 96.1422 299.618C96.4463 300.091 96.7349 300.675 97.0078 301.367ZM96.3774 303.732L95.5671 301.675C95.38 301.2 95.1868 300.795 94.9873 300.459C94.7909 300.116 94.5888 299.838 94.381 299.623C94.1732 299.408 93.9554 299.253 93.7277 299.158C93.5048 299.061 93.2724 299.018 93.0305 299.03C92.7916 299.034 92.5413 299.088 92.2796 299.191C91.9598 299.317 91.7002 299.489 91.5008 299.708C91.2994 299.922 91.1645 300.19 91.0961 300.514C91.0325 300.836 91.0392 301.222 91.1161 301.673C91.1931 302.124 91.3489 302.648 91.5837 303.244L92.394 305.301C92.5811 305.776 92.7729 306.184 92.9693 306.527C93.1706 306.867 93.3795 307.149 93.596 307.372C93.8105 307.589 94.0311 307.752 94.2579 307.858C94.4846 307.965 94.7184 308.018 94.9592 308.019C95.2029 308.012 95.4532 307.958 95.7101 307.857C96.0396 307.727 96.3031 307.551 96.5006 307.327C96.6981 307.104 96.8268 306.827 96.8866 306.495C96.9493 306.157 96.9388 305.761 96.8551 305.307C96.7695 304.848 96.6103 304.323 96.3774 303.732ZM105.382 298.069L106.017 299.683C106.359 300.55 106.57 301.312 106.649 301.969C106.729 302.627 106.695 303.194 106.548 303.672C106.4 304.15 106.153 304.553 105.806 304.88C105.462 305.2 105.033 305.461 104.519 305.664C104.112 305.824 103.716 305.921 103.332 305.955C102.948 305.988 102.574 305.948 102.21 305.834C101.849 305.713 101.5 305.509 101.163 305.222C100.826 304.935 100.504 304.552 100.198 304.074C99.8923 303.596 99.6028 303.01 99.3299 302.317L98.6942 300.703C98.3525 299.836 98.1437 299.078 98.0678 298.431C97.9968 297.782 98.037 297.223 98.1884 296.754C98.3379 296.281 98.5856 295.887 98.9316 295.572C99.2824 295.254 99.7122 294.995 100.221 294.795C100.633 294.633 101.031 294.535 101.415 294.501C101.802 294.46 102.174 294.496 102.532 294.607C102.887 294.713 103.23 294.909 103.56 295.193C103.893 295.47 104.212 295.846 104.516 296.319C104.82 296.793 105.109 297.376 105.382 298.069ZM104.751 300.433L103.941 298.376C103.754 297.901 103.561 297.496 103.361 297.16C103.165 296.818 102.963 296.539 102.755 296.324C102.547 296.11 102.329 295.955 102.101 295.86C101.879 295.763 101.646 295.72 101.404 295.731C101.165 295.736 100.915 295.79 100.653 295.893C100.334 296.019 100.074 296.191 99.8745 296.409C99.6732 296.623 99.5383 296.892 99.4699 297.215C99.4063 297.537 99.4129 297.923 99.4899 298.375C99.5668 298.826 99.7227 299.349 99.9575 299.945L100.768 302.002C100.955 302.477 101.147 302.886 101.343 303.228C101.544 303.569 101.753 303.851 101.97 304.073C102.184 304.291 102.405 304.453 102.632 304.56C102.858 304.666 103.092 304.72 103.333 304.72C103.577 304.714 103.827 304.66 104.084 304.559C104.413 304.429 104.677 304.252 104.874 304.029C105.072 303.806 105.201 303.528 105.26 303.197C105.323 302.859 105.313 302.462 105.229 302.008C105.143 301.55 104.984 301.025 104.751 300.433ZM118.766 296.575C119.019 297.22 119.085 297.827 118.962 298.396C118.842 298.958 118.573 299.456 118.156 299.889C117.744 300.32 117.22 300.66 116.585 300.91C115.951 301.161 115.333 301.269 114.733 301.237C114.132 301.205 113.596 301.024 113.125 300.695C112.652 300.361 112.288 299.871 112.035 299.227C111.868 298.805 111.797 298.389 111.819 297.977C111.845 297.558 111.954 297.16 112.146 296.781C112.343 296.401 112.618 296.061 112.97 295.76C113.324 295.452 113.749 295.201 114.243 295.007C114.892 294.751 115.521 294.649 116.129 294.7C116.735 294.747 117.27 294.931 117.732 295.253C118.2 295.572 118.544 296.013 118.766 296.575ZM117.402 297.079C117.247 296.686 117.026 296.373 116.738 296.14C116.448 295.901 116.117 295.757 115.745 295.708C115.373 295.659 114.986 295.713 114.584 295.872C114.172 296.034 113.849 296.259 113.615 296.547C113.387 296.833 113.25 297.161 113.205 297.531C113.159 297.897 113.213 298.276 113.368 298.668C113.528 299.075 113.746 299.393 114.02 299.62C114.297 299.841 114.617 299.97 114.978 300.007C115.343 300.037 115.733 299.97 116.15 299.806C116.567 299.641 116.896 299.425 117.137 299.156C117.377 298.883 117.52 298.572 117.567 298.223C117.617 297.867 117.562 297.486 117.402 297.079ZM116.563 291.708C116.765 292.222 116.812 292.738 116.703 293.257C116.593 293.776 116.351 294.246 115.974 294.669C115.598 295.092 115.111 295.42 114.515 295.655C113.91 295.894 113.322 295.988 112.754 295.937C112.19 295.885 111.694 295.706 111.265 295.399C110.837 295.092 110.521 294.681 110.319 294.168C110.076 293.552 110.003 292.976 110.1 292.44C110.202 291.902 110.442 291.426 110.823 291.014C111.203 290.601 111.694 290.276 112.295 290.039C112.9 289.8 113.483 289.702 114.043 289.745C114.603 289.788 115.101 289.972 115.537 290.298C115.978 290.623 116.32 291.093 116.563 291.708ZM115.227 292.26C115.087 291.906 114.889 291.623 114.632 291.411C114.375 291.199 114.082 291.067 113.755 291.017C113.425 290.962 113.084 291.005 112.73 291.144C112.376 291.283 112.096 291.481 111.888 291.736C111.684 291.984 111.56 292.274 111.517 292.604C111.478 292.933 111.532 293.284 111.679 293.657C111.823 294.02 112.02 294.309 112.273 294.523C112.53 294.735 112.821 294.864 113.147 294.909C113.472 294.955 113.812 294.908 114.166 294.768C114.52 294.629 114.798 294.433 115 294.179C115.208 293.924 115.333 293.631 115.376 293.301C115.42 292.97 115.37 292.623 115.227 292.26ZM125.822 290.017L126.457 291.631C126.799 292.499 127.01 293.261 127.089 293.918C127.169 294.575 127.135 295.143 126.988 295.621C126.84 296.099 126.593 296.501 126.246 296.828C125.902 297.148 125.473 297.41 124.959 297.612C124.552 297.772 124.157 297.869 123.772 297.903C123.388 297.937 123.014 297.897 122.65 297.783C122.289 297.662 121.94 297.458 121.603 297.171C121.266 296.884 120.944 296.501 120.638 296.022C120.332 295.544 120.043 294.958 119.77 294.265L119.134 292.652C118.793 291.784 118.584 291.027 118.508 290.379C118.437 289.73 118.477 289.171 118.628 288.703C118.778 288.23 119.026 287.835 119.372 287.52C119.723 287.203 120.152 286.944 120.661 286.743C121.073 286.581 121.471 286.483 121.855 286.449C122.242 286.409 122.614 286.444 122.972 286.555C123.327 286.662 123.67 286.857 124 287.141C124.333 287.418 124.652 287.794 124.956 288.268C125.26 288.741 125.549 289.324 125.822 290.017ZM125.191 292.382L124.381 290.325C124.194 289.85 124.001 289.444 123.801 289.109C123.605 288.766 123.403 288.488 123.195 288.273C122.987 288.058 122.769 287.903 122.542 287.808C122.319 287.711 122.086 287.668 121.844 287.68C121.605 287.684 121.355 287.738 121.094 287.841C120.774 287.967 120.514 288.139 120.315 288.358C120.113 288.571 119.978 288.84 119.91 289.164C119.846 289.485 119.853 289.872 119.93 290.323C120.007 290.774 120.163 291.298 120.398 291.894L121.208 293.951C121.395 294.426 121.587 294.834 121.783 295.177C121.985 295.517 122.193 295.799 122.41 296.022C122.624 296.239 122.845 296.402 123.072 296.508C123.298 296.615 123.532 296.668 123.773 296.669C124.017 296.662 124.267 296.608 124.524 296.507C124.853 296.377 125.117 296.201 125.315 295.977C125.512 295.754 125.641 295.477 125.7 295.145C125.763 294.807 125.753 294.411 125.669 293.957C125.583 293.498 125.424 292.973 125.191 292.382ZM134.195 286.719L134.831 288.333C135.173 289.2 135.384 289.962 135.463 290.619C135.543 291.277 135.509 291.844 135.361 292.322C135.214 292.8 134.967 293.203 134.62 293.53C134.275 293.85 133.847 294.111 133.333 294.313C132.926 294.474 132.53 294.571 132.146 294.605C131.762 294.638 131.388 294.598 131.024 294.484C130.663 294.363 130.314 294.159 129.977 293.872C129.64 293.585 129.318 293.202 129.012 292.724C128.706 292.245 128.417 291.66 128.144 290.967L127.508 289.353C127.166 288.486 126.958 287.728 126.882 287.081C126.811 286.431 126.851 285.873 127.002 285.404C127.152 284.931 127.399 284.537 127.745 284.222C128.096 283.904 128.526 283.645 129.035 283.445C129.447 283.283 129.845 283.185 130.229 283.151C130.616 283.11 130.988 283.146 131.346 283.257C131.701 283.363 132.044 283.558 132.374 283.843C132.707 284.12 133.026 284.495 133.33 284.969C133.634 285.443 133.923 286.026 134.195 286.719ZM133.565 289.083L132.755 287.026C132.568 286.551 132.374 286.146 132.175 285.81C131.979 285.468 131.776 285.189 131.569 284.974C131.361 284.759 131.143 284.605 130.915 284.51C130.692 284.413 130.46 284.37 130.218 284.381C129.979 284.386 129.729 284.439 129.467 284.543C129.147 284.669 128.888 284.841 128.688 285.059C128.487 285.273 128.352 285.542 128.284 285.865C128.22 286.187 128.227 286.573 128.304 287.024C128.381 287.476 128.537 287.999 128.771 288.595L129.582 290.652C129.769 291.127 129.96 291.536 130.157 291.878C130.358 292.219 130.567 292.5 130.784 292.723C130.998 292.941 131.219 293.103 131.445 293.21C131.672 293.316 131.906 293.37 132.147 293.37C132.391 293.364 132.641 293.31 132.898 293.209C133.227 293.079 133.491 292.902 133.688 292.679C133.886 292.456 134.014 292.178 134.074 291.847C134.137 291.509 134.126 291.112 134.043 290.658C133.957 290.199 133.798 289.674 133.565 289.083ZM142.569 283.42L143.205 285.034C143.547 285.901 143.757 286.664 143.837 287.321C143.917 287.978 143.883 288.546 143.735 289.024C143.588 289.502 143.34 289.904 142.993 290.231C142.649 290.551 142.22 290.813 141.707 291.015C141.3 291.175 140.904 291.272 140.52 291.306C140.136 291.34 139.762 291.3 139.398 291.186C139.037 291.065 138.687 290.861 138.35 290.574C138.013 290.287 137.692 289.904 137.386 289.425C137.08 288.947 136.79 288.361 136.518 287.668L135.882 286.055C135.54 285.187 135.331 284.43 135.255 283.782C135.184 283.133 135.225 282.574 135.376 282.106C135.525 281.633 135.773 281.238 136.119 280.923C136.47 280.606 136.9 280.347 137.409 280.146C137.821 279.984 138.219 279.886 138.603 279.852C138.99 279.812 139.362 279.847 139.719 279.958C140.075 280.065 140.417 280.26 140.748 280.544C141.081 280.821 141.4 281.197 141.704 281.671C142.008 282.144 142.296 282.727 142.569 283.42ZM141.939 285.785L141.128 283.728C140.941 283.253 140.748 282.847 140.549 282.512C140.352 282.169 140.15 281.891 139.942 281.676C139.735 281.461 139.517 281.306 139.289 281.211C139.066 281.114 138.834 281.071 138.592 281.083C138.353 281.087 138.103 281.141 137.841 281.244C137.521 281.37 137.262 281.542 137.062 281.761C136.861 281.974 136.726 282.243 136.657 282.567C136.594 282.888 136.601 283.275 136.678 283.726C136.754 284.177 136.91 284.701 137.145 285.297L137.955 287.354C138.142 287.829 138.334 288.237 138.531 288.58C138.732 288.92 138.941 289.202 139.157 289.425C139.372 289.642 139.593 289.805 139.819 289.911C140.046 290.018 140.28 290.071 140.521 290.072C140.764 290.065 141.015 290.011 141.271 289.91C141.601 289.78 141.865 289.604 142.062 289.38C142.26 289.157 142.388 288.88 142.448 288.548C142.511 288.21 142.5 287.814 142.416 287.36C142.331 286.901 142.172 286.376 141.939 285.785ZM155.953 281.927C156.207 282.571 156.272 283.178 156.15 283.747C156.03 284.309 155.761 284.807 155.344 285.24C154.931 285.671 154.408 286.012 153.773 286.262C153.138 286.512 152.521 286.621 151.92 286.589C151.32 286.557 150.784 286.376 150.313 286.046C149.84 285.712 149.476 285.223 149.222 284.578C149.056 284.157 148.984 283.74 149.007 283.328C149.032 282.909 149.141 282.511 149.334 282.133C149.531 281.753 149.806 281.412 150.157 281.111C150.512 280.804 150.936 280.553 151.431 280.358C152.08 280.102 152.709 280 153.317 280.052C153.923 280.098 154.457 280.283 154.92 280.604C155.387 280.924 155.732 281.365 155.953 281.927ZM154.59 282.43C154.435 282.038 154.214 281.725 153.926 281.491C153.636 281.253 153.305 281.109 152.933 281.059C152.561 281.01 152.174 281.065 151.771 281.223C151.359 281.385 151.037 281.61 150.803 281.898C150.574 282.184 150.438 282.512 150.393 282.883C150.347 283.248 150.401 283.627 150.555 284.019C150.716 284.427 150.933 284.744 151.208 284.972C151.485 285.193 151.804 285.322 152.166 285.358C152.53 285.388 152.921 285.321 153.338 285.157C153.755 284.993 154.084 284.776 154.325 284.508C154.564 284.234 154.708 283.923 154.755 283.574C154.805 283.219 154.75 282.837 154.59 282.43ZM153.75 277.06C153.953 277.573 153.999 278.089 153.89 278.608C153.781 279.127 153.538 279.598 153.162 280.02C152.785 280.443 152.299 280.772 151.703 281.006C151.097 281.245 150.51 281.339 149.942 281.289C149.378 281.237 148.882 281.057 148.453 280.75C148.024 280.443 147.709 280.033 147.506 279.519C147.264 278.904 147.191 278.328 147.288 277.792C147.389 277.253 147.63 276.778 148.01 276.365C148.391 275.952 148.881 275.627 149.482 275.39C150.088 275.152 150.671 275.054 151.231 275.096C151.79 275.139 152.288 275.324 152.725 275.65C153.166 275.974 153.508 276.444 153.75 277.06ZM152.414 277.611C152.275 277.257 152.077 276.974 151.82 276.762C151.562 276.55 151.27 276.419 150.942 276.369C150.613 276.314 150.271 276.356 149.918 276.495C149.564 276.635 149.283 276.832 149.076 277.087C148.871 277.336 148.748 277.625 148.704 277.956C148.666 278.284 148.72 278.635 148.867 279.008C149.01 279.372 149.208 279.661 149.46 279.875C149.717 280.087 150.009 280.216 150.334 280.261C150.66 280.306 151 280.259 151.354 280.12C151.707 279.98 151.985 279.784 152.188 279.531C152.395 279.275 152.521 278.983 152.564 278.652C152.607 278.322 152.557 277.975 152.414 277.611ZM163.009 275.369L163.645 276.982C163.987 277.85 164.197 278.612 164.277 279.269C164.357 279.926 164.323 280.494 164.175 280.972C164.028 281.45 163.78 281.852 163.433 282.179C163.089 282.5 162.66 282.761 162.147 282.963C161.74 283.124 161.344 283.221 160.96 283.255C160.576 283.288 160.202 283.248 159.838 283.134C159.477 283.013 159.128 282.809 158.791 282.522C158.454 282.235 158.132 281.852 157.826 281.374C157.52 280.895 157.231 280.31 156.958 279.617L156.322 278.003C155.98 277.136 155.771 276.378 155.696 275.731C155.625 275.081 155.665 274.523 155.816 274.054C155.966 273.581 156.213 273.187 156.559 272.871C156.91 272.554 157.34 272.295 157.849 272.095C158.261 271.933 158.659 271.835 159.043 271.801C159.43 271.76 159.802 271.796 160.159 271.907C160.515 272.013 160.858 272.208 161.188 272.493C161.521 272.77 161.84 273.145 162.144 273.619C162.448 274.093 162.736 274.676 163.009 275.369ZM162.379 277.733L161.569 275.676C161.381 275.201 161.188 274.796 160.989 274.46C160.792 274.118 160.59 273.839 160.382 273.624C160.175 273.409 159.957 273.254 159.729 273.159C159.506 273.063 159.274 273.02 159.032 273.031C158.793 273.036 158.543 273.089 158.281 273.192C157.961 273.318 157.702 273.491 157.502 273.709C157.301 273.923 157.166 274.191 157.098 274.515C157.034 274.837 157.041 275.223 157.118 275.674C157.195 276.125 157.35 276.649 157.585 277.245L158.396 279.302C158.583 279.777 158.774 280.186 158.971 280.528C159.172 280.869 159.381 281.15 159.597 281.373C159.812 281.591 160.033 281.753 160.259 281.86C160.486 281.966 160.72 282.02 160.961 282.02C161.204 282.013 161.455 281.96 161.712 281.858C162.041 281.729 162.305 281.552 162.502 281.329C162.7 281.105 162.828 280.828 162.888 280.497C162.951 280.158 162.94 279.762 162.857 279.308C162.771 278.849 162.612 278.324 162.379 277.733ZM171.383 272.07L172.019 273.684C172.36 274.551 172.571 275.314 172.651 275.971C172.731 276.628 172.697 277.195 172.549 277.673C172.401 278.151 172.154 278.554 171.807 278.881C171.463 279.201 171.034 279.463 170.521 279.665C170.114 279.825 169.718 279.922 169.334 279.956C168.95 279.99 168.576 279.95 168.211 279.836C167.85 279.715 167.501 279.511 167.164 279.224C166.827 278.936 166.506 278.554 166.2 278.075C165.894 277.597 165.604 277.011 165.331 276.318L164.696 274.705C164.354 273.837 164.145 273.08 164.069 272.432C163.998 271.783 164.038 271.224 164.19 270.756C164.339 270.283 164.587 269.888 164.933 269.573C165.284 269.256 165.714 268.997 166.223 268.796C166.634 268.634 167.032 268.536 167.417 268.502C167.804 268.462 168.176 268.497 168.533 268.608C168.889 268.715 169.231 268.91 169.562 269.194C169.895 269.471 170.213 269.847 170.517 270.32C170.822 270.794 171.11 271.377 171.383 272.07ZM170.753 274.435L169.942 272.378C169.755 271.903 169.562 271.497 169.363 271.162C169.166 270.819 168.964 270.541 168.756 270.326C168.548 270.111 168.331 269.956 168.103 269.861C167.88 269.764 167.648 269.721 167.406 269.732C167.167 269.737 166.917 269.791 166.655 269.894C166.335 270.02 166.075 270.192 165.876 270.411C165.675 270.624 165.54 270.893 165.471 271.217C165.408 271.538 165.414 271.925 165.491 272.376C165.568 272.827 165.724 273.351 165.959 273.947L166.769 276.004C166.956 276.479 167.148 276.887 167.345 277.23C167.546 277.57 167.755 277.852 167.971 278.074C168.186 278.292 168.406 278.454 168.633 278.561C168.86 278.668 169.094 278.721 169.334 278.721C169.578 278.715 169.829 278.661 170.085 278.56C170.415 278.43 170.678 278.254 170.876 278.03C171.073 277.807 171.202 277.53 171.262 277.198C171.325 276.86 171.314 276.464 171.23 276.01C171.145 275.551 170.986 275.026 170.753 274.435Z" fill="white"/>
<path d="M135.607 228.316C135.37 227.714 135.066 227.22 134.696 226.833C134.332 226.431 133.846 226.131 133.236 225.935C132.639 225.734 131.871 225.62 130.933 225.594C130.006 225.563 128.865 225.61 127.509 225.735C126.084 225.859 124.767 225.894 123.558 225.838C122.345 225.77 121.253 225.579 120.283 225.265C119.314 224.951 118.48 224.481 117.783 223.855C117.087 223.229 116.54 222.414 116.145 221.41C115.749 220.406 115.591 219.398 115.669 218.384C115.748 217.371 116.047 216.4 116.569 215.472C117.097 214.527 117.829 213.665 118.764 212.888C119.699 212.11 120.829 211.46 122.151 210.939C124.089 210.176 125.877 209.902 127.517 210.115C129.164 210.313 130.576 210.868 131.755 211.782C132.929 212.684 133.781 213.808 134.312 215.155L130.91 216.495C130.528 215.526 129.984 214.751 129.278 214.17C128.566 213.577 127.708 213.233 126.702 213.138C125.691 213.031 124.542 213.232 123.254 213.739C122.038 214.218 121.106 214.797 120.459 215.474C119.811 216.152 119.416 216.881 119.273 217.661C119.142 218.436 119.234 219.225 119.55 220.028C119.765 220.571 120.072 221.023 120.473 221.384C120.882 221.728 121.403 221.993 122.036 222.18C122.681 222.363 123.444 222.465 124.326 222.486C125.219 222.502 126.255 222.449 127.435 222.325C129.062 222.162 130.508 222.125 131.771 222.214C133.034 222.303 134.134 222.532 135.07 222.9C136.014 223.251 136.809 223.763 137.456 224.436C138.11 225.093 138.635 225.923 139.031 226.927C139.445 227.978 139.607 229.013 139.517 230.031C139.426 231.049 139.104 232.015 138.55 232.929C137.996 233.843 137.229 234.684 136.249 235.452C135.276 236.204 134.11 236.847 132.752 237.382C131.559 237.852 130.318 238.15 129.031 238.275C127.755 238.396 126.514 238.312 125.308 238.022C124.115 237.728 123.043 237.209 122.095 236.464C121.154 235.702 120.429 234.677 119.922 233.39L123.324 232.05C123.673 232.936 124.144 233.63 124.738 234.133C125.327 234.624 125.999 234.96 126.752 235.141C127.517 235.317 128.318 235.356 129.153 235.259C129.995 235.146 130.829 234.926 131.656 234.601C132.849 234.131 133.794 233.568 134.491 232.911C135.187 232.255 135.627 231.536 135.81 230.754C136.005 229.968 135.938 229.155 135.607 228.316ZM139.229 204.621L149.391 230.419L145.972 231.766L135.81 205.968L139.229 204.621ZM154.803 198.487L148.823 214.74L145.263 223.367L143.258 219.94L145.826 213.157L150.693 200.106L154.803 198.487ZM161.67 225.582L147.164 216.764L148.134 213.251L165.745 223.977L161.67 225.582ZM162.263 195.548L172.424 221.346L169.005 222.693L158.843 196.895L162.263 195.548ZM180.118 204.09L181.179 206.784L172.533 210.189L171.472 207.496L180.118 204.09ZM194.201 201.081L187.309 203.796L186.213 201.014L193.105 198.299C194.44 197.773 195.437 197.135 196.097 196.384C196.756 195.633 197.126 194.805 197.206 193.9C197.298 192.991 197.153 192.052 196.772 191.083C196.423 190.197 195.9 189.441 195.203 188.815C194.518 188.185 193.669 187.796 192.656 187.649C191.638 187.491 190.462 187.674 189.127 188.2L183.032 190.601L192.091 213.599L188.672 214.946L178.51 189.148L188.025 185.401C189.973 184.633 191.754 184.32 193.366 184.463C194.977 184.606 196.367 185.137 197.534 186.055C198.696 186.962 199.577 188.177 200.177 189.701C200.829 191.355 201.036 192.903 200.8 194.347C200.564 195.791 199.893 197.085 198.789 198.23C197.679 199.363 196.15 200.313 194.201 201.081ZM209.407 179.618L210.128 206.494L206.638 207.869L206.309 178.198L208.56 177.312L209.407 179.618ZM225.826 200.31L208.007 180.169L207.054 177.905L209.304 177.018L229.334 198.928L225.826 200.31ZM221.622 190.935L222.724 193.734L208.231 199.443L207.128 196.644L221.622 190.935ZM243.97 185.631C243.733 185.029 243.429 184.534 243.059 184.148C242.695 183.746 242.209 183.446 241.599 183.249C241.002 183.048 240.234 182.935 239.295 182.908C238.369 182.878 237.228 182.925 235.872 183.05C234.447 183.174 233.13 183.208 231.921 183.153C230.707 183.085 229.616 182.894 228.646 182.58C227.676 182.266 226.843 181.796 226.146 181.17C225.449 180.544 224.903 179.729 224.508 178.725C224.112 177.721 223.954 176.712 224.032 175.699C224.11 174.686 224.41 173.715 224.931 172.786C225.46 171.842 226.192 170.98 227.127 170.202C228.062 169.425 229.191 168.775 230.514 168.254C232.451 167.491 234.24 167.216 235.88 167.43C237.526 167.627 238.939 168.183 240.118 169.097C241.292 169.999 242.144 171.123 242.674 172.47L239.273 173.81C238.891 172.841 238.347 172.066 237.64 171.485C236.929 170.892 236.071 170.548 235.064 170.453C234.054 170.346 232.904 170.546 231.617 171.053C230.4 171.533 229.468 172.111 228.821 172.789C228.174 173.467 227.779 174.196 227.636 174.975C227.504 175.75 227.597 176.539 227.913 177.343C228.127 177.886 228.435 178.338 228.836 178.698C229.245 179.042 229.765 179.308 230.399 179.495C231.044 179.678 231.807 179.78 232.688 179.801C233.582 179.817 234.618 179.764 235.798 179.64C237.425 179.477 238.87 179.44 240.134 179.529C241.397 179.618 242.496 179.846 243.433 180.214C244.376 180.566 245.172 181.078 245.819 181.751C246.473 182.408 246.998 183.238 247.393 184.242C247.808 185.293 247.97 186.328 247.879 187.346C247.789 188.364 247.467 189.33 246.913 190.244C246.359 191.158 245.592 191.999 244.612 192.767C243.639 193.519 242.473 194.162 241.115 194.697C239.922 195.167 238.681 195.465 237.393 195.59C236.117 195.711 234.877 195.626 233.671 195.337C232.477 195.043 231.406 194.524 230.458 193.778C229.516 193.017 228.792 191.992 228.285 190.705L231.687 189.365C232.036 190.25 232.507 190.945 233.101 191.448C233.69 191.939 234.361 192.275 235.115 192.456C235.88 192.632 236.68 192.671 237.515 192.574C238.358 192.461 239.192 192.241 240.019 191.916C241.212 191.446 242.157 190.882 242.853 190.226C243.55 189.57 243.99 188.85 244.173 188.069C244.368 187.282 244.301 186.47 243.97 185.631ZM265.515 177.144C265.278 176.542 264.974 176.048 264.604 175.661C264.24 175.259 263.754 174.959 263.144 174.763C262.546 174.561 261.779 174.448 260.84 174.422C259.914 174.391 258.773 174.438 257.417 174.563C255.992 174.687 254.675 174.722 253.466 174.666C252.252 174.598 251.161 174.407 250.191 174.093C249.221 173.779 248.388 173.309 247.691 172.683C246.994 172.057 246.448 171.242 246.053 170.238C245.657 169.234 245.499 168.226 245.577 167.212C245.655 166.199 245.955 165.228 246.476 164.3C247.005 163.355 247.737 162.493 248.672 161.716C249.607 160.938 250.736 160.288 252.059 159.767C253.996 159.004 255.785 158.73 257.424 158.943C259.071 159.141 260.484 159.696 261.663 160.61C262.837 161.512 263.689 162.636 264.219 163.983L260.818 165.323C260.436 164.354 259.892 163.579 259.185 162.998C258.474 162.405 257.616 162.061 256.609 161.966C255.599 161.859 254.449 162.06 253.162 162.567C251.945 163.046 251.013 163.625 250.366 164.302C249.719 164.98 249.324 165.709 249.181 166.489C249.049 167.264 249.142 168.053 249.458 168.856C249.672 169.399 249.98 169.851 250.381 170.212C250.79 170.556 251.31 170.821 251.943 171.008C252.588 171.191 253.352 171.293 254.233 171.314C255.127 171.33 256.163 171.277 257.343 171.153C258.97 170.99 260.415 170.953 261.679 171.042C262.942 171.131 264.041 171.36 264.978 171.728C265.921 172.079 266.717 172.591 267.364 173.264C268.018 173.921 268.543 174.751 268.938 175.755C269.353 176.806 269.514 177.841 269.424 178.859C269.334 179.877 269.012 180.843 268.458 181.757C267.904 182.671 267.137 183.512 266.157 184.28C265.184 185.032 264.018 185.675 262.66 186.21C261.467 186.68 260.226 186.978 258.938 187.103C257.662 187.224 256.422 187.14 255.216 186.85C254.022 186.556 252.951 186.037 252.003 185.292C251.061 184.53 250.337 183.505 249.83 182.218L253.232 180.878C253.581 181.764 254.052 182.458 254.646 182.961C255.235 183.452 255.906 183.788 256.66 183.969C257.425 184.145 258.225 184.184 259.06 184.087C259.903 183.974 260.737 183.754 261.564 183.429C262.757 182.959 263.702 182.396 264.398 181.739C265.095 181.083 265.535 180.364 265.718 179.582C265.913 178.796 265.845 177.983 265.515 177.144Z" fill="white"/>
<path d="M52.9678 192.081L38.1626 247.728L86.9414 278.328L102.594 222.348L52.9678 192.081Z" stroke="white"/>
<g clip-path="url(#clip1_349_4)">
<path d="M81.1327 255.768L81.4941 256.066L81.6041 255.201C81.6041 255.201 81.6583 253.483 82.0705 254.421C82.6277 255.224 82.3675 254.246 82.3675 254.246C82.3612 254.128 81.7277 251.842 82.7926 254.249C83.8572 256.654 83.0682 254.257 83.1693 254.29C84.7161 254.793 87.3579 256.93 87.3579 256.93L84.0998 258.214L84.307 258.385L87.8248 256.999L81.4767 251.767L81.1327 255.768Z" fill="white"/>
<path d="M80.1458 255.598L79.6236 255.168L70.8786 247.965L69.4346 264.774L79.1262 260.957L84.2151 258.952L83.9146 258.704L80.1458 255.598ZM79.5498 260.258L79.1739 260.406L70.0187 264.013L71.1465 255.178C71.1465 255.178 71.2625 251.568 72.1252 253.54C73.2963 255.224 72.7509 253.171 72.7509 253.171C72.7377 252.923 71.4051 248.121 73.6434 253.175C75.8821 258.23 74.2213 253.194 74.4346 253.263C75.909 253.744 77.857 254.93 79.5451 256.082C79.7119 256.197 79.8775 256.311 80.0396 256.424C81.8383 257.681 83.2315 258.808 83.2315 258.808L79.5498 260.258Z" fill="white"/>
<path d="M75.8888 250.497L78.455 252.448L81.5672 251.222L82.1139 248.045L79.5473 246.095L76.4352 247.321L75.8888 250.497ZM78.2899 249.823L77.472 250.146L77.3795 249.911L78.1974 249.588L78.2899 249.823ZM79.3027 247.139L80.5844 248.215L77.1228 249.578L77.326 247.917L79.3027 247.139Z" fill="white"/>
<path d="M78.4382 245.556L76.877 246.171L77.0481 246.605L78.6093 245.99L78.4382 245.556Z" fill="white"/>
<path d="M77.364 243.759L77.3701 243.677L76.0725 243.637L76.0675 243.704L70.1567 243.454L70.1182 243.93L76.0349 244.181L76.034 244.187L76.3071 244.196L76.3054 244.266L77.5571 244.774L77.2106 245.519L77.5271 245.647L78.0171 244.593L77.1119 244.226L86.3124 244.616L86.3505 244.139L77.364 243.759Z" fill="white"/>
</g>
<line y1="-0.297343" x2="62.3171" y2="-0.297343" transform="matrix(0.927037 -0.374971 0.374203 0.927347 42.0586 247.021)" stroke="white" stroke-width="0.594686"/>
<path d="M52.1767 238.513C52.1043 238.329 52.0117 238.179 51.8987 238.061C51.7879 237.938 51.6396 237.847 51.4537 237.787C51.2714 237.725 51.0372 237.691 50.7511 237.683C50.4686 237.673 50.1205 237.688 49.7069 237.726C49.2725 237.764 48.8709 237.774 48.5021 237.757C48.132 237.737 47.799 237.678 47.5033 237.583C47.2076 237.487 46.9535 237.344 46.741 237.153C46.5285 236.962 46.3619 236.713 46.2413 236.407C46.1207 236.101 46.0723 235.793 46.0962 235.484C46.1201 235.175 46.2116 234.879 46.3705 234.596C46.5316 234.308 46.7548 234.045 47.0401 233.808C47.3253 233.571 47.6696 233.373 48.0731 233.214C48.6639 232.981 49.2093 232.897 49.7093 232.962C50.2116 233.022 50.6424 233.192 51.0019 233.471C51.3599 233.746 51.6198 234.089 51.7815 234.499L50.7441 234.908C50.6277 234.612 50.4618 234.376 50.2464 234.199C50.0295 234.018 49.7676 233.913 49.4607 233.884C49.1525 233.852 48.802 233.913 48.4094 234.067C48.0384 234.214 47.7542 234.39 47.5568 234.597C47.3594 234.803 47.2389 235.026 47.1952 235.263C47.1552 235.5 47.1834 235.74 47.2799 235.985C47.3452 236.151 47.439 236.289 47.5613 236.399C47.6859 236.504 47.8447 236.585 48.0378 236.642C48.2345 236.697 48.4673 236.729 48.7361 236.735C49.0086 236.74 49.3247 236.724 49.6843 236.686C50.1807 236.636 50.6215 236.625 51.0067 236.652C51.3919 236.679 51.7273 236.749 52.0128 236.861C52.3006 236.968 52.5431 237.125 52.7405 237.33C52.94 237.53 53.1001 237.783 53.2207 238.089C53.347 238.41 53.3964 238.725 53.3689 239.036C53.3414 239.346 53.2431 239.641 53.0741 239.92C52.9051 240.199 52.6712 240.455 52.3723 240.689C52.0756 240.919 51.7201 241.115 51.3059 241.278C50.9421 241.421 50.5638 241.512 50.171 241.55C49.7819 241.587 49.4035 241.561 49.0358 241.473C48.6718 241.383 48.3451 241.225 48.0559 240.998C47.7688 240.765 47.5479 240.453 47.3932 240.06L48.4307 239.652C48.5371 239.922 48.6809 240.134 48.862 240.287C49.0416 240.437 49.2464 240.539 49.4761 240.594C49.7095 240.648 49.9535 240.66 50.2082 240.63C50.4651 240.596 50.7196 240.529 50.9717 240.43C51.3355 240.286 51.6237 240.115 51.8361 239.914C52.0485 239.714 52.1827 239.495 52.2386 239.256C52.2981 239.017 52.2775 238.769 52.1767 238.513ZM53.2813 231.287L56.3803 239.154L55.3375 239.565L52.2384 231.698L53.2813 231.287ZM58.0309 229.416L56.207 234.373L55.1212 237.004L54.5099 235.959L55.2929 233.89L56.7773 229.91L58.0309 229.416ZM60.1249 237.679L55.7012 234.99L55.997 233.919L61.3676 237.19L60.1249 237.679ZM60.3057 228.52L63.4047 236.387L62.3619 236.798L59.2628 228.931L60.3057 228.52ZM65.751 231.125L66.0746 231.946L63.4377 232.985L63.1142 232.164L65.751 231.125ZM70.0459 230.207L67.944 231.035L67.6098 230.187L69.7117 229.359C70.1188 229.198 70.4229 229.004 70.6239 228.775C70.825 228.546 70.9378 228.293 70.9622 228.017C70.9903 227.74 70.9461 227.454 70.8298 227.158C70.7234 226.888 70.5639 226.657 70.3514 226.467C70.1424 226.274 69.8835 226.156 69.5746 226.111C69.2643 226.063 68.9056 226.119 68.4985 226.279L66.6398 227.011L69.4025 234.025L68.3596 234.435L65.2606 226.568L68.1622 225.425C68.7566 225.191 69.2995 225.096 69.7911 225.139C70.2826 225.183 70.7063 225.345 71.0622 225.625C71.4166 225.901 71.6853 226.272 71.8684 226.737C72.067 227.241 72.1303 227.713 72.0583 228.154C71.9862 228.594 71.7818 228.989 71.4449 229.338C71.1066 229.683 70.6403 229.973 70.0459 230.207ZM74.6831 223.662L74.9031 231.858L73.8387 232.277L73.7385 223.229L74.4247 222.958L74.6831 223.662ZM79.6905 229.972L74.2562 223.83L73.9655 223.139L74.6517 222.869L80.7604 229.551L79.6905 229.972ZM78.4082 227.113L78.7445 227.967L74.3245 229.708L73.9882 228.854L78.4082 227.113ZM78.715 221.268L81.3195 220.242C81.9102 220.01 82.4446 219.903 82.9226 219.923C83.4042 219.941 83.8208 220.085 84.1724 220.354C84.5262 220.619 84.8038 221.007 85.0053 221.518C85.1472 221.878 85.2032 222.237 85.1733 222.594C85.1456 222.946 85.0359 223.281 84.8445 223.598C84.6552 223.909 84.3913 224.19 84.0528 224.44L83.8057 224.668L81.358 225.633L81.013 224.789L82.861 224.061C83.2356 223.913 83.5216 223.725 83.7191 223.498C83.9152 223.267 84.0322 223.015 84.0703 222.742C84.1085 222.469 84.0743 222.197 83.9679 221.927C83.8487 221.624 83.6849 221.383 83.4767 221.203C83.2684 221.023 83.0123 220.922 82.7083 220.9C82.4064 220.873 82.0556 220.939 81.6558 221.096L80.0942 221.711L82.8569 228.725L81.8141 229.136L78.715 221.268ZM86.4123 227.324L83.0948 224.512L84.1787 224.078L87.4999 226.821L87.5254 226.886L86.4123 227.324ZM86.577 218.171L89.676 226.039L88.6331 226.45L85.5341 218.582L86.577 218.171ZM91.3265 216.3L89.5027 221.257L88.4169 223.888L87.8055 222.843L88.5886 220.775L90.0729 216.794L91.3265 216.3ZM93.4205 224.564L88.9969 221.875L89.2926 220.803L94.6633 224.074L93.4205 224.564Z" fill="#FFFEFE"/>
<defs>
<filter id="filter0_bd_349_4" x="93.2812" y="3.28027" width="310.666" height="250.809" filterUnits="userSpaceOnUse" color-interpolation-filters="sRGB">
<feFlood flood-opacity="0" result="BackgroundImageFix"/>
<feGaussianBlur in="BackgroundImageFix" stdDeviation="2"/>
<feComposite in2="SourceAlpha" operator="in" result="effect1_backgroundBlur_349_4"/>
<feColorMatrix in="SourceAlpha" type="matrix" values="0 0 0 0 0 0 0 0 0 0 0 0 0 0 0 0 0 0 127 0" result="hardAlpha"/>
<feOffset dy="4"/>
<feGaussianBlur stdDeviation="2"/>
<feComposite in2="hardAlpha" operator="out"/>
<feColorMatrix type="matrix" values="0 0 0 0 0 0 0 0 0 0 0 0 0 0 0 0 0 0 0.25 0"/>
<feBlend mode="normal" in2="effect1_backgroundBlur_349_4" result="effect2_dropShadow_349_4"/>
<feBlend mode="normal" in="SourceGraphic" in2="effect2_dropShadow_349_4" result="shape"/>
</filter>
<filter id="filter1_bd_349_4" x="13.1953" y="98.187" width="313.615" height="242.562" filterUnits="userSpaceOnUse" color-interpolation-filters="sRGB">
<feFlood flood-opacity="0" result="BackgroundImageFix"/>
<feGaussianBlur in="BackgroundImageFix" stdDeviation="2"/>
<feComposite in2="SourceAlpha" operator="in" result="effect1_backgroundBlur_349_4"/>
<feColorMatrix in="SourceAlpha" type="matrix" values="0 0 0 0 0 0 0 0 0 0 0 0 0 0 0 0 0 0 127 0" result="hardAlpha"/>
<feOffset dx="4" dy="4"/>
<feGaussianBlur stdDeviation="2"/>
<feComposite in2="hardAlpha" operator="out"/>
<feColorMatrix type="matrix" values="0 0 0 0 0 0 0 0 0 0 0 0 0 0 0 0 0 0 0.25 0"/>
<feBlend mode="normal" in2="effect1_backgroundBlur_349_4" result="effect2_dropShadow_349_4"/>
<feBlend mode="normal" in="SourceGraphic" in2="effect2_dropShadow_349_4" result="shape"/>
</filter>
<linearGradient id="paint0_linear_349_4" x1="289.57" y1="6" x2="289.57" y2="150" gradientUnits="userSpaceOnUse">
<stop stop-color="#119DA4"/>
<stop offset="1" stop-color="#333333" stop-opacity="0.56"/>
</linearGradient>
<linearGradient id="paint1_linear_349_4" x1="289.57" y1="6" x2="289.57" y2="150" gradientUnits="userSpaceOnUse">
<stop offset="0.170132" stop-color="white"/>
<stop offset="0.331593" stop-color="white"/>
</linearGradient>
<linearGradient id="paint2_linear_349_4" x1="151.008" y1="199.956" x2="151.008" y2="343.956" gradientUnits="userSpaceOnUse">
<stop stop-color="#119DA4"/>
<stop offset="1" stop-color="#333333" stop-opacity="0.56"/>
</linearGradient>
<linearGradient id="paint3_linear_349_4" x1="151.008" y1="199.956" x2="151.008" y2="343.956" gradientUnits="userSpaceOnUse">
<stop offset="0.278188" stop-color="white"/>
<stop offset="0.47411" stop-color="white" stop-opacity="0"/>
</linearGradient>
<clipPath id="clip0_349_4">
<rect width="23.3005" height="22.1639" fill="white" transform="translate(154.309 71.106) rotate(24)"/>
</clipPath>
<clipPath id="clip1_349_4">
<rect width="23.3005" height="22.1639" fill="white" transform="translate(61.7852 245.359) rotate(-21.5)"/>
</clipPath>
</defs>
</svg>
